<svg xmlns="http://www.w3.org/2000/svg" xmlns:xlink="http://www.w3.org/1999/xlink" width="1080" zoomAndPan="magnify" viewBox="0 0 810 809.999993" height="1080" preserveAspectRatio="xMidYMid meet" version="1.0"><defs><g/><clipPath id="f134c70751"><path d="M 0 706.898438 L 810 706.898438 L 810 810 L 0 810 Z M 0 706.898438 " clip-rule="nonzero"/></clipPath><clipPath id="94251de4c4"><path d="M 226.441406 484 L 275 484 L 275 568 L 226.441406 568 Z M 226.441406 484 " clip-rule="nonzero"/></clipPath><clipPath id="dc06f5e9ef"><path d="M 534 486 L 583.441406 486 L 583.441406 571 L 534 571 Z M 534 486 " clip-rule="nonzero"/></clipPath></defs><rect x="-81" width="972" fill="#ffffff" y="-80.999999" height="971.999992" fill-opacity="1"/><rect x="-81" width="972" fill="#f6f6e9" y="-80.999999" height="971.999992" fill-opacity="1"/><g clip-path="url(#f134c70751)"><path fill="#2c502f" d="M -15.90625 706.898438 L 825.875 706.898438 L 825.875 815.078125 L -15.90625 815.078125 Z M -15.90625 706.898438 " fill-opacity="1" fill-rule="nonzero"/></g><path fill="#ffccaa" d="M 249.230469 493.835938 L 296.425781 481.804688 C 296.425781 481.804688 337.972656 448.9375 355.75 441.609375 C 367.988281 436.53125 379.398438 435.589844 388.949219 442.835938 C 406.050781 455.761719 406.449219 480.230469 403.117188 484.230469 C 399.789062 488.230469 393.203125 491.25 389.484375 477.050781 C 382.875 472.105469 382.144531 466.976562 374.113281 469.289062 C 366.09375 471.703125 359.300781 482.300781 355.375 486.339844 C 351.449219 490.378906 358.140625 505.773438 364.695312 508.433594 C 371.261719 511.195312 383.261719 510.117188 391.097656 515.582031 C 398.9375 521.046875 409.738281 535.277344 401.753906 539.78125 C 393.769531 544.28125 386.398438 530.722656 370.9375 530.730469 C 355.480469 530.738281 330.0625 537.171875 319.585938 537.15625 C 309.21875 537.230469 295.71875 536.714844 295.71875 536.714844 L 262.167969 549.945312 Z M 249.230469 493.835938 " fill-opacity="1" fill-rule="nonzero"/><path fill="#ff9955" d="M 394.0625 479.941406 C 392.863281 479.917969 391.453125 479.710938 389.917969 479.117188 C 389.40625 478.949219 389.070312 478.375 389.328125 477.757812 C 389.496094 477.25 390.074219 476.914062 390.6875 477.171875 C 395.789062 478.933594 397.257812 476.945312 398.128906 474.996094 C 399.503906 471.621094 395.855469 466.183594 393.648438 462.941406 L 392.988281 461.988281 C 386.898438 452.726562 379.671875 447.421875 371.613281 446.253906 C 363.257812 445.101562 354.011719 448.589844 344.941406 456.347656 C 344.464844 456.679688 343.867188 456.71875 343.4375 456.246094 C 343.109375 455.769531 343.070312 455.175781 343.539062 454.746094 C 353.082031 446.558594 362.820312 442.941406 371.875 444.144531 C 380.535156 445.375 388.179688 450.949219 394.707031 460.78125 L 395.269531 461.742188 C 397.699219 465.367188 401.675781 471.28125 399.867188 475.679688 C 398.855469 478.535156 396.855469 479.957031 394.0625 479.941406 Z M 394.0625 479.941406 " fill-opacity="1" fill-rule="nonzero"/><path fill="#ff9955" d="M 327.617188 508.851562 C 326.816406 508.804688 326.207031 508.644531 326.0625 507.957031 C 325.890625 506.875 326.574219 506.628906 329.21875 505.863281 C 330.679688 505.367188 332.445312 504.855469 333.210938 504.40625 C 338.117188 501.597656 342.042969 497.558594 345.980469 493.71875 C 348.792969 490.949219 351.691406 487.972656 354.832031 485.675781 C 355.3125 485.347656 355.914062 485.40625 356.242188 485.882812 C 356.574219 486.359375 356.511719 486.960938 356.035156 487.292969 C 352.992188 489.578125 350.273438 492.246094 347.46875 495.117188 C 343.535156 499.054688 339.417969 503.207031 334.320312 506.128906 C 333.359375 506.6875 331.507812 507.304688 329.941406 507.804688 C 329.84375 507.8125 329.75 507.917969 329.652344 507.925781 C 329.585938 508.425781 329.210938 508.847656 328.714844 508.882812 C 328.3125 508.808594 327.914062 508.832031 327.617188 508.851562 Z M 327.617188 508.851562 " fill-opacity="1" fill-rule="nonzero"/><g clip-path="url(#94251de4c4)"><path fill="#a05a2c" d="M 262.28125 484.421875 L 274.273438 548.960938 L 246.179688 567.914062 L 226.746094 491.710938 Z M 262.28125 484.421875 " fill-opacity="1" fill-rule="nonzero"/></g><path fill="#d38d5f" d="M 560.511719 496.027344 L 513.523438 483.199219 C 513.523438 483.199219 472.542969 449.632812 454.890625 442.003906 C 442.742188 436.722656 431.351562 435.589844 421.679688 442.671875 C 404.359375 455.308594 403.542969 479.765625 406.804688 483.820312 C 410.066406 487.878906 416.601562 491.003906 420.5625 476.875 C 427.25 472.039062 428.070312 466.921875 436.058594 469.371094 C 444.039062 471.921875 450.648438 482.632812 454.507812 486.734375 C 458.363281 490.839844 451.414062 506.121094 444.8125 508.671875 C 438.203125 511.320312 426.222656 510.039062 418.292969 515.371094 C 410.363281 520.703125 399.320312 534.75 407.226562 539.386719 C 415.136719 544.023438 422.734375 530.589844 438.191406 530.859375 C 453.648438 531.128906 478.953125 537.988281 489.425781 538.152344 C 499.792969 538.402344 513.300781 538.113281 513.300781 538.113281 L 546.621094 551.914062 Z M 560.511719 496.027344 " fill-opacity="1" fill-rule="nonzero"/><path fill="#a05a2c" d="M 416.035156 479.695312 C 413.242188 479.664062 411.253906 478.304688 410.09375 475.417969 C 408.363281 470.988281 412.546875 465.050781 414.929688 461.558594 L 415.507812 460.609375 C 422.101562 450.882812 429.839844 445.433594 438.617188 444.359375 C 447.59375 443.300781 457.371094 447.09375 466.769531 455.441406 C 467.242188 455.777344 467.285156 456.480469 466.847656 456.941406 C 466.507812 457.414062 465.804688 457.457031 465.34375 457.019531 C 456.40625 449.109375 447.214844 445.464844 438.84375 446.472656 C 430.769531 447.503906 423.460938 452.585938 417.203125 461.84375 L 416.527344 462.785156 C 414.265625 465.992188 410.527344 471.367188 411.847656 474.765625 C 412.585938 476.71875 414.117188 478.738281 419.246094 477.066406 C 419.761719 476.910156 420.339844 477.15625 420.597656 477.675781 C 420.753906 478.1875 420.507812 478.765625 419.984375 479.019531 C 418.546875 479.5 417.234375 479.691406 416.035156 479.695312 Z M 416.035156 479.695312 " fill-opacity="1" fill-rule="nonzero"/><path fill="#a05a2c" d="M 481.980469 509.726562 C 481.679688 509.699219 481.285156 509.667969 480.886719 509.636719 C 480.390625 509.59375 480.027344 509.167969 479.96875 508.664062 C 479.871094 508.65625 479.777344 508.546875 479.679688 508.539062 C 478.125 508.011719 476.28125 507.363281 475.328125 506.789062 C 470.28125 503.78125 466.234375 499.5625 462.371094 495.554688 C 459.515625 492.628906 456.851562 489.820312 453.9375 487.585938 C 453.464844 487.25 453.421875 486.546875 453.753906 486.175781 C 454.09375 485.707031 454.792969 485.664062 455.167969 485.992188 C 458.269531 488.339844 461.117188 491.367188 463.882812 494.183594 C 467.65625 498.082031 471.613281 502.195312 476.46875 505.085938 C 477.230469 505.546875 478.972656 506.1875 480.4375 506.609375 C 483.058594 507.519531 483.738281 507.777344 483.554688 508.757812 C 483.292969 509.535156 482.679688 509.683594 481.980469 509.726562 Z M 481.8125 509.3125 Z M 481.8125 509.3125 " fill-opacity="1" fill-rule="nonzero"/><g clip-path="url(#dc06f5e9ef)"><path fill="#a7ac93" d="M 547.621094 486.394531 L 534.535156 550.722656 L 562.292969 570.246094 L 583.019531 494.382812 Z M 547.621094 486.394531 " fill-opacity="1" fill-rule="nonzero"/></g><path fill="#2c502f" d="M 163.230469 177.101562 C 157.007812 145.101562 118.007812 144.566406 108.394531 174.484375 C 98.777344 144.566406 59.777344 145.101562 53.558594 177.101562 C 47.914062 206.136719 108.394531 251.945312 108.394531 251.945312 C 108.394531 251.945312 168.875 206.136719 163.230469 177.101562 Z M 163.230469 177.101562 " fill-opacity="1" fill-rule="nonzero"/><g fill="#000000" fill-opacity="1"><g transform="translate(70.596326, 380.765966)"><g><path d="M 12.171875 -6.65625 C 12.171875 -5.1875 11.898438 -3.957031 11.359375 -2.96875 C 10.828125 -1.988281 10.050781 -1.25 9.03125 -0.75 C 8.019531 -0.25 6.789062 0 5.34375 0 L 1.78125 0 L 1.78125 -13.078125 L 5.734375 -13.078125 C 7.054688 -13.078125 8.195312 -12.832031 9.15625 -12.34375 C 10.125 -11.851562 10.867188 -11.132812 11.390625 -10.1875 C 11.910156 -9.238281 12.171875 -8.0625 12.171875 -6.65625 Z M 10.5625 -6.609375 C 10.5625 -7.785156 10.363281 -8.753906 9.96875 -9.515625 C 9.582031 -10.273438 9.015625 -10.84375 8.265625 -11.21875 C 7.515625 -11.59375 6.59375 -11.78125 5.5 -11.78125 L 3.3125 -11.78125 L 3.3125 -1.3125 L 5.15625 -1.3125 C 6.957031 -1.3125 8.304688 -1.753906 9.203125 -2.640625 C 10.109375 -3.523438 10.5625 -4.847656 10.5625 -6.609375 Z M 10.5625 -6.609375 "/></g></g></g><g fill="#000000" fill-opacity="1"><g transform="translate(87.381236, 380.765966)"><g><path d="M 13.125 -6.546875 C 13.125 -5.546875 12.992188 -4.628906 12.734375 -3.796875 C 12.484375 -2.972656 12.101562 -2.265625 11.59375 -1.671875 C 11.09375 -1.078125 10.46875 -0.617188 9.71875 -0.296875 C 8.976562 0.015625 8.117188 0.171875 7.140625 0.171875 C 6.117188 0.171875 5.234375 0.015625 4.484375 -0.296875 C 3.734375 -0.617188 3.109375 -1.078125 2.609375 -1.671875 C 2.109375 -2.273438 1.734375 -2.988281 1.484375 -3.8125 C 1.242188 -4.644531 1.125 -5.566406 1.125 -6.578125 C 1.125 -7.910156 1.34375 -9.078125 1.78125 -10.078125 C 2.21875 -11.085938 2.882812 -11.875 3.78125 -12.4375 C 4.675781 -13 5.800781 -13.28125 7.15625 -13.28125 C 8.457031 -13.28125 9.550781 -13 10.4375 -12.4375 C 11.320312 -11.882812 11.988281 -11.109375 12.4375 -10.109375 C 12.894531 -9.109375 13.125 -7.921875 13.125 -6.546875 Z M 2.71875 -6.546875 C 2.71875 -5.441406 2.875 -4.484375 3.1875 -3.671875 C 3.507812 -2.859375 3.992188 -2.234375 4.640625 -1.796875 C 5.296875 -1.359375 6.128906 -1.140625 7.140625 -1.140625 C 8.148438 -1.140625 8.976562 -1.359375 9.625 -1.796875 C 10.269531 -2.234375 10.75 -2.859375 11.0625 -3.671875 C 11.375 -4.484375 11.53125 -5.441406 11.53125 -6.546875 C 11.53125 -8.234375 11.175781 -9.550781 10.46875 -10.5 C 9.757812 -11.457031 8.65625 -11.9375 7.15625 -11.9375 C 6.144531 -11.9375 5.3125 -11.71875 4.65625 -11.28125 C 4 -10.84375 3.507812 -10.222656 3.1875 -9.421875 C 2.875 -8.617188 2.71875 -7.660156 2.71875 -6.546875 Z M 2.71875 -6.546875 "/></g></g></g><g fill="#000000" fill-opacity="1"><g transform="translate(105.122831, 380.765966)"><g><path d="M 9.0625 0 L 1.78125 0 L 1.78125 -13.078125 L 9.0625 -13.078125 L 9.0625 -11.734375 L 3.3125 -11.734375 L 3.3125 -7.5 L 8.734375 -7.5 L 8.734375 -6.171875 L 3.3125 -6.171875 L 3.3125 -1.34375 L 9.0625 -1.34375 Z M 9.0625 0 "/></g></g></g><g fill="#000000" fill-opacity="1"><g transform="translate(118.796296, 380.765966)"><g/></g></g><g fill="#000000" fill-opacity="1"><g transform="translate(127.051555, 380.765966)"><g><path d="M 9.0625 0 L 1.78125 0 L 1.78125 -13.078125 L 9.0625 -13.078125 L 9.0625 -11.734375 L 3.3125 -11.734375 L 3.3125 -7.5 L 8.734375 -7.5 L 8.734375 -6.171875 L 3.3125 -6.171875 L 3.3125 -1.34375 L 9.0625 -1.34375 Z M 9.0625 0 "/></g></g></g><g fill="#000000" fill-opacity="1"><g transform="translate(140.72502, 380.765966)"><g/></g></g><g fill="#000000" fill-opacity="1"><g transform="translate(148.980279, 380.765966)"><g><path d="M 7.375 -6.84375 L 11.953125 -6.84375 L 11.953125 -0.515625 C 11.265625 -0.273438 10.554688 -0.101562 9.828125 0 C 9.109375 0.113281 8.300781 0.171875 7.40625 0.171875 C 6.039062 0.171875 4.890625 -0.0976562 3.953125 -0.640625 C 3.023438 -1.179688 2.320312 -1.953125 1.84375 -2.953125 C 1.363281 -3.960938 1.125 -5.15625 1.125 -6.53125 C 1.125 -7.882812 1.390625 -9.066406 1.921875 -10.078125 C 2.453125 -11.085938 3.222656 -11.867188 4.234375 -12.421875 C 5.242188 -12.984375 6.457031 -13.265625 7.875 -13.265625 C 8.601562 -13.265625 9.289062 -13.195312 9.9375 -13.0625 C 10.59375 -12.925781 11.203125 -12.734375 11.765625 -12.484375 L 11.1875 -11.171875 C 10.707031 -11.378906 10.175781 -11.554688 9.59375 -11.703125 C 9.007812 -11.847656 8.40625 -11.921875 7.78125 -11.921875 C 6.71875 -11.921875 5.804688 -11.703125 5.046875 -11.265625 C 4.285156 -10.828125 3.703125 -10.203125 3.296875 -9.390625 C 2.898438 -8.585938 2.703125 -7.632812 2.703125 -6.53125 C 2.703125 -5.445312 2.875 -4.5 3.21875 -3.6875 C 3.570312 -2.882812 4.117188 -2.257812 4.859375 -1.8125 C 5.609375 -1.363281 6.570312 -1.140625 7.75 -1.140625 C 8.34375 -1.140625 8.847656 -1.171875 9.265625 -1.234375 C 9.691406 -1.304688 10.078125 -1.390625 10.421875 -1.484375 L 10.421875 -5.484375 L 7.375 -5.484375 Z M 7.375 -6.84375 "/></g></g></g><g fill="#000000" fill-opacity="1"><g transform="translate(165.792017, 380.765966)"><g><path d="M 9.984375 0 L 8.375 -4.15625 L 3.140625 -4.15625 L 1.53125 0 L 0 0 L 5.109375 -13.125 L 6.484375 -13.125 L 11.5625 0 Z M 7.921875 -5.5 L 6.390625 -9.625 C 6.359375 -9.726562 6.300781 -9.898438 6.21875 -10.140625 C 6.132812 -10.390625 6.050781 -10.644531 5.96875 -10.90625 C 5.882812 -11.164062 5.816406 -11.378906 5.765625 -11.546875 C 5.703125 -11.296875 5.632812 -11.050781 5.5625 -10.8125 C 5.5 -10.570312 5.4375 -10.347656 5.375 -10.140625 C 5.3125 -9.929688 5.253906 -9.757812 5.203125 -9.625 L 3.640625 -5.5 Z M 7.921875 -5.5 "/></g></g></g><g fill="#000000" fill-opacity="1"><g transform="translate(180.869214, 380.765966)"><g><path d="M 12.015625 0 L 10.25 0 L 3.125 -10.984375 L 3.0625 -10.984375 C 3.070312 -10.691406 3.085938 -10.359375 3.109375 -9.984375 C 3.140625 -9.609375 3.160156 -9.207031 3.171875 -8.78125 C 3.191406 -8.363281 3.203125 -7.941406 3.203125 -7.515625 L 3.203125 0 L 1.78125 0 L 1.78125 -13.078125 L 3.53125 -13.078125 L 10.625 -2.125 L 10.6875 -2.125 C 10.675781 -2.332031 10.660156 -2.628906 10.640625 -3.015625 C 10.628906 -3.398438 10.613281 -3.8125 10.59375 -4.25 C 10.582031 -4.695312 10.578125 -5.113281 10.578125 -5.5 L 10.578125 -13.078125 L 12.015625 -13.078125 Z M 12.015625 0 "/></g></g></g><g fill="#000000" fill-opacity="1"><g transform="translate(198.154816, 380.765966)"><g><path d="M 11.703125 0 L 10.171875 0 L 10.171875 -6.15625 L 3.3125 -6.15625 L 3.3125 0 L 1.78125 0 L 1.78125 -13.078125 L 3.3125 -13.078125 L 3.3125 -7.5 L 10.171875 -7.5 L 10.171875 -13.078125 L 11.703125 -13.078125 Z M 11.703125 0 "/></g></g></g><g fill="#000000" fill-opacity="1"><g transform="translate(215.154308, 380.765966)"><g><path d="M 9.0625 0 L 1.78125 0 L 1.78125 -13.078125 L 9.0625 -13.078125 L 9.0625 -11.734375 L 3.3125 -11.734375 L 3.3125 -7.5 L 8.734375 -7.5 L 8.734375 -6.171875 L 3.3125 -6.171875 L 3.3125 -1.34375 L 9.0625 -1.34375 Z M 9.0625 0 "/></g></g></g><g fill="#000000" fill-opacity="1"><g transform="translate(228.827774, 380.765966)"><g/></g></g><g fill="#000000" fill-opacity="1"><g transform="translate(237.083032, 380.765966)"><g><path d="M 5.203125 -13.078125 C 6.890625 -13.078125 8.117188 -12.742188 8.890625 -12.078125 C 9.671875 -11.421875 10.0625 -10.476562 10.0625 -9.25 C 10.0625 -8.695312 9.96875 -8.171875 9.78125 -7.671875 C 9.601562 -7.179688 9.3125 -6.742188 8.90625 -6.359375 C 8.507812 -5.984375 7.976562 -5.6875 7.3125 -5.46875 C 6.65625 -5.25 5.851562 -5.140625 4.90625 -5.140625 L 3.3125 -5.140625 L 3.3125 0 L 1.78125 0 L 1.78125 -13.078125 Z M 5.0625 -11.78125 L 3.3125 -11.78125 L 3.3125 -6.453125 L 4.734375 -6.453125 C 5.566406 -6.453125 6.257812 -6.539062 6.8125 -6.71875 C 7.375 -6.894531 7.796875 -7.179688 8.078125 -7.578125 C 8.359375 -7.984375 8.5 -8.519531 8.5 -9.1875 C 8.5 -10.0625 8.21875 -10.710938 7.65625 -11.140625 C 7.101562 -11.566406 6.238281 -11.78125 5.0625 -11.78125 Z M 5.0625 -11.78125 "/></g></g></g><g fill="#000000" fill-opacity="1"><g transform="translate(251.596945, 380.765966)"><g><path d="M 13.125 -6.546875 C 13.125 -5.546875 12.992188 -4.628906 12.734375 -3.796875 C 12.484375 -2.972656 12.101562 -2.265625 11.59375 -1.671875 C 11.09375 -1.078125 10.46875 -0.617188 9.71875 -0.296875 C 8.976562 0.015625 8.117188 0.171875 7.140625 0.171875 C 6.117188 0.171875 5.234375 0.015625 4.484375 -0.296875 C 3.734375 -0.617188 3.109375 -1.078125 2.609375 -1.671875 C 2.109375 -2.273438 1.734375 -2.988281 1.484375 -3.8125 C 1.242188 -4.644531 1.125 -5.566406 1.125 -6.578125 C 1.125 -7.910156 1.34375 -9.078125 1.78125 -10.078125 C 2.21875 -11.085938 2.882812 -11.875 3.78125 -12.4375 C 4.675781 -13 5.800781 -13.28125 7.15625 -13.28125 C 8.457031 -13.28125 9.550781 -13 10.4375 -12.4375 C 11.320312 -11.882812 11.988281 -11.109375 12.4375 -10.109375 C 12.894531 -9.109375 13.125 -7.921875 13.125 -6.546875 Z M 2.71875 -6.546875 C 2.71875 -5.441406 2.875 -4.484375 3.1875 -3.671875 C 3.507812 -2.859375 3.992188 -2.234375 4.640625 -1.796875 C 5.296875 -1.359375 6.128906 -1.140625 7.140625 -1.140625 C 8.148438 -1.140625 8.976562 -1.359375 9.625 -1.796875 C 10.269531 -2.234375 10.75 -2.859375 11.0625 -3.671875 C 11.375 -4.484375 11.53125 -5.441406 11.53125 -6.546875 C 11.53125 -8.234375 11.175781 -9.550781 10.46875 -10.5 C 9.757812 -11.457031 8.65625 -11.9375 7.15625 -11.9375 C 6.144531 -11.9375 5.3125 -11.71875 4.65625 -11.28125 C 4 -10.84375 3.507812 -10.222656 3.1875 -9.421875 C 2.875 -8.617188 2.71875 -7.660156 2.71875 -6.546875 Z M 2.71875 -6.546875 "/></g></g></g><g fill="#000000" fill-opacity="1"><g transform="translate(269.338529, 380.765966)"><g><path d="M 12.015625 0 L 10.25 0 L 3.125 -10.984375 L 3.0625 -10.984375 C 3.070312 -10.691406 3.085938 -10.359375 3.109375 -9.984375 C 3.140625 -9.609375 3.160156 -9.207031 3.171875 -8.78125 C 3.191406 -8.363281 3.203125 -7.941406 3.203125 -7.515625 L 3.203125 0 L 1.78125 0 L 1.78125 -13.078125 L 3.53125 -13.078125 L 10.625 -2.125 L 10.6875 -2.125 C 10.675781 -2.332031 10.660156 -2.628906 10.640625 -3.015625 C 10.628906 -3.398438 10.613281 -3.8125 10.59375 -4.25 C 10.582031 -4.695312 10.578125 -5.113281 10.578125 -5.5 L 10.578125 -13.078125 L 12.015625 -13.078125 Z M 12.015625 0 "/></g></g></g><g fill="#000000" fill-opacity="1"><g transform="translate(286.624121, 380.765966)"><g><path d="M 5.796875 0 L 4.28125 0 L 4.28125 -11.734375 L 0.15625 -11.734375 L 0.15625 -13.078125 L 9.890625 -13.078125 L 9.890625 -11.734375 L 5.796875 -11.734375 Z M 5.796875 0 "/></g></g></g><g fill="#000000" fill-opacity="1"><g transform="translate(300.208176, 380.765966)"><g><path d="M 13.125 -6.546875 C 13.125 -5.546875 12.992188 -4.628906 12.734375 -3.796875 C 12.484375 -2.972656 12.101562 -2.265625 11.59375 -1.671875 C 11.09375 -1.078125 10.46875 -0.617188 9.71875 -0.296875 C 8.976562 0.015625 8.117188 0.171875 7.140625 0.171875 C 6.117188 0.171875 5.234375 0.015625 4.484375 -0.296875 C 3.734375 -0.617188 3.109375 -1.078125 2.609375 -1.671875 C 2.109375 -2.273438 1.734375 -2.988281 1.484375 -3.8125 C 1.242188 -4.644531 1.125 -5.566406 1.125 -6.578125 C 1.125 -7.910156 1.34375 -9.078125 1.78125 -10.078125 C 2.21875 -11.085938 2.882812 -11.875 3.78125 -12.4375 C 4.675781 -13 5.800781 -13.28125 7.15625 -13.28125 C 8.457031 -13.28125 9.550781 -13 10.4375 -12.4375 C 11.320312 -11.882812 11.988281 -11.109375 12.4375 -10.109375 C 12.894531 -9.109375 13.125 -7.921875 13.125 -6.546875 Z M 2.71875 -6.546875 C 2.71875 -5.441406 2.875 -4.484375 3.1875 -3.671875 C 3.507812 -2.859375 3.992188 -2.234375 4.640625 -1.796875 C 5.296875 -1.359375 6.128906 -1.140625 7.140625 -1.140625 C 8.148438 -1.140625 8.976562 -1.359375 9.625 -1.796875 C 10.269531 -2.234375 10.75 -2.859375 11.0625 -3.671875 C 11.375 -4.484375 11.53125 -5.441406 11.53125 -6.546875 C 11.53125 -8.234375 11.175781 -9.550781 10.46875 -10.5 C 9.757812 -11.457031 8.65625 -11.9375 7.15625 -11.9375 C 6.144531 -11.9375 5.3125 -11.71875 4.65625 -11.28125 C 4 -10.84375 3.507812 -10.222656 3.1875 -9.421875 C 2.875 -8.617188 2.71875 -7.660156 2.71875 -6.546875 Z M 2.71875 -6.546875 "/></g></g></g><g fill="#000000" fill-opacity="1"><g transform="translate(317.94976, 380.765966)"><g><path d="M 9.171875 -3.484375 C 9.171875 -2.703125 8.976562 -2.035156 8.59375 -1.484375 C 8.207031 -0.941406 7.664062 -0.53125 6.96875 -0.25 C 6.28125 0.03125 5.46875 0.171875 4.53125 0.171875 C 4.039062 0.171875 3.570312 0.144531 3.125 0.09375 C 2.6875 0.0507812 2.28125 -0.0078125 1.90625 -0.09375 C 1.539062 -0.1875 1.21875 -0.296875 0.9375 -0.421875 L 0.9375 -1.890625 C 1.382812 -1.703125 1.929688 -1.53125 2.578125 -1.375 C 3.222656 -1.21875 3.894531 -1.140625 4.59375 -1.140625 C 5.25 -1.140625 5.800781 -1.222656 6.25 -1.390625 C 6.707031 -1.566406 7.050781 -1.820312 7.28125 -2.15625 C 7.519531 -2.488281 7.640625 -2.890625 7.640625 -3.359375 C 7.640625 -3.804688 7.539062 -4.175781 7.34375 -4.46875 C 7.15625 -4.769531 6.832031 -5.046875 6.375 -5.296875 C 5.914062 -5.546875 5.289062 -5.8125 4.5 -6.09375 C 3.945312 -6.289062 3.457031 -6.503906 3.03125 -6.734375 C 2.613281 -6.972656 2.257812 -7.238281 1.96875 -7.53125 C 1.6875 -7.832031 1.472656 -8.179688 1.328125 -8.578125 C 1.179688 -8.972656 1.109375 -9.421875 1.109375 -9.921875 C 1.109375 -10.617188 1.285156 -11.21875 1.640625 -11.71875 C 1.992188 -12.21875 2.484375 -12.597656 3.109375 -12.859375 C 3.742188 -13.128906 4.46875 -13.265625 5.28125 -13.265625 C 5.976562 -13.265625 6.625 -13.195312 7.21875 -13.0625 C 7.8125 -12.925781 8.359375 -12.75 8.859375 -12.53125 L 8.375 -11.234375 C 7.90625 -11.429688 7.40625 -11.59375 6.875 -11.71875 C 6.351562 -11.851562 5.8125 -11.921875 5.25 -11.921875 C 4.6875 -11.921875 4.210938 -11.835938 3.828125 -11.671875 C 3.441406 -11.503906 3.144531 -11.269531 2.9375 -10.96875 C 2.738281 -10.675781 2.640625 -10.328125 2.640625 -9.921875 C 2.640625 -9.460938 2.738281 -9.078125 2.9375 -8.765625 C 3.132812 -8.460938 3.441406 -8.191406 3.859375 -7.953125 C 4.285156 -7.722656 4.851562 -7.476562 5.5625 -7.21875 C 6.332031 -6.9375 6.984375 -6.640625 7.515625 -6.328125 C 8.054688 -6.015625 8.46875 -5.632812 8.75 -5.1875 C 9.03125 -4.738281 9.171875 -4.171875 9.171875 -3.484375 Z M 9.171875 -3.484375 "/></g></g></g><g fill="#000000" fill-opacity="1"><g transform="translate(331.489116, 380.765966)"><g/></g></g><g fill="#000000" fill-opacity="1"><g transform="translate(339.744375, 380.765966)"><g><path d="M 5.203125 -13.078125 C 6.890625 -13.078125 8.117188 -12.742188 8.890625 -12.078125 C 9.671875 -11.421875 10.0625 -10.476562 10.0625 -9.25 C 10.0625 -8.695312 9.96875 -8.171875 9.78125 -7.671875 C 9.601562 -7.179688 9.3125 -6.742188 8.90625 -6.359375 C 8.507812 -5.984375 7.976562 -5.6875 7.3125 -5.46875 C 6.65625 -5.25 5.851562 -5.140625 4.90625 -5.140625 L 3.3125 -5.140625 L 3.3125 0 L 1.78125 0 L 1.78125 -13.078125 Z M 5.0625 -11.78125 L 3.3125 -11.78125 L 3.3125 -6.453125 L 4.734375 -6.453125 C 5.566406 -6.453125 6.257812 -6.539062 6.8125 -6.71875 C 7.375 -6.894531 7.796875 -7.179688 8.078125 -7.578125 C 8.359375 -7.984375 8.5 -8.519531 8.5 -9.1875 C 8.5 -10.0625 8.21875 -10.710938 7.65625 -11.140625 C 7.101562 -11.566406 6.238281 -11.78125 5.0625 -11.78125 Z M 5.0625 -11.78125 "/></g></g></g><g fill="#000000" fill-opacity="1"><g transform="translate(354.258288, 380.765966)"><g><path d="M 9.984375 0 L 8.375 -4.15625 L 3.140625 -4.15625 L 1.53125 0 L 0 0 L 5.109375 -13.125 L 6.484375 -13.125 L 11.5625 0 Z M 7.921875 -5.5 L 6.390625 -9.625 C 6.359375 -9.726562 6.300781 -9.898438 6.21875 -10.140625 C 6.132812 -10.390625 6.050781 -10.644531 5.96875 -10.90625 C 5.882812 -11.164062 5.816406 -11.378906 5.765625 -11.546875 C 5.703125 -11.296875 5.632812 -11.050781 5.5625 -10.8125 C 5.5 -10.570312 5.4375 -10.347656 5.375 -10.140625 C 5.3125 -9.929688 5.253906 -9.757812 5.203125 -9.625 L 3.640625 -5.5 Z M 7.921875 -5.5 "/></g></g></g><g fill="#000000" fill-opacity="1"><g transform="translate(369.335484, 380.765966)"><g><path d="M 5.3125 -13.078125 C 6.394531 -13.078125 7.285156 -12.941406 7.984375 -12.671875 C 8.679688 -12.410156 9.203125 -12.007812 9.546875 -11.46875 C 9.890625 -10.925781 10.0625 -10.234375 10.0625 -9.390625 C 10.0625 -8.691406 9.9375 -8.113281 9.6875 -7.65625 C 9.4375 -7.195312 9.109375 -6.820312 8.703125 -6.53125 C 8.296875 -6.25 7.863281 -6.03125 7.40625 -5.875 L 11 0 L 9.234375 0 L 6.03125 -5.453125 L 3.3125 -5.453125 L 3.3125 0 L 1.78125 0 L 1.78125 -13.078125 Z M 5.234375 -11.765625 L 3.3125 -11.765625 L 3.3125 -6.734375 L 5.390625 -6.734375 C 6.453125 -6.734375 7.234375 -6.953125 7.734375 -7.390625 C 8.242188 -7.828125 8.5 -8.46875 8.5 -9.3125 C 8.5 -10.207031 8.226562 -10.835938 7.6875 -11.203125 C 7.15625 -11.578125 6.335938 -11.765625 5.234375 -11.765625 Z M 5.234375 -11.765625 "/></g></g></g><g fill="#000000" fill-opacity="1"><g transform="translate(384.135507, 380.765966)"><g><path d="M 9.984375 0 L 8.375 -4.15625 L 3.140625 -4.15625 L 1.53125 0 L 0 0 L 5.109375 -13.125 L 6.484375 -13.125 L 11.5625 0 Z M 7.921875 -5.5 L 6.390625 -9.625 C 6.359375 -9.726562 6.300781 -9.898438 6.21875 -10.140625 C 6.132812 -10.390625 6.050781 -10.644531 5.96875 -10.90625 C 5.882812 -11.164062 5.816406 -11.378906 5.765625 -11.546875 C 5.703125 -11.296875 5.632812 -11.050781 5.5625 -10.8125 C 5.5 -10.570312 5.4375 -10.347656 5.375 -10.140625 C 5.3125 -9.929688 5.253906 -9.757812 5.203125 -9.625 L 3.640625 -5.5 Z M 7.921875 -5.5 "/></g></g></g><g fill="#000000" fill-opacity="1"><g transform="translate(399.212704, 380.765966)"><g/></g></g><g fill="#000000" fill-opacity="1"><g transform="translate(407.467962, 380.765966)"><g><path d="M 5.796875 0 L 4.28125 0 L 4.28125 -11.734375 L 0.15625 -11.734375 L 0.15625 -13.078125 L 9.890625 -13.078125 L 9.890625 -11.734375 L 5.796875 -11.734375 Z M 5.796875 0 "/></g></g></g><g fill="#000000" fill-opacity="1"><g transform="translate(421.052018, 380.765966)"><g><path d="M 5.3125 -13.078125 C 6.394531 -13.078125 7.285156 -12.941406 7.984375 -12.671875 C 8.679688 -12.410156 9.203125 -12.007812 9.546875 -11.46875 C 9.890625 -10.925781 10.0625 -10.234375 10.0625 -9.390625 C 10.0625 -8.691406 9.9375 -8.113281 9.6875 -7.65625 C 9.4375 -7.195312 9.109375 -6.820312 8.703125 -6.53125 C 8.296875 -6.25 7.863281 -6.03125 7.40625 -5.875 L 11 0 L 9.234375 0 L 6.03125 -5.453125 L 3.3125 -5.453125 L 3.3125 0 L 1.78125 0 L 1.78125 -13.078125 Z M 5.234375 -11.765625 L 3.3125 -11.765625 L 3.3125 -6.734375 L 5.390625 -6.734375 C 6.453125 -6.734375 7.234375 -6.953125 7.734375 -7.390625 C 8.242188 -7.828125 8.5 -8.46875 8.5 -9.3125 C 8.5 -10.207031 8.226562 -10.835938 7.6875 -11.203125 C 7.15625 -11.578125 6.335938 -11.765625 5.234375 -11.765625 Z M 5.234375 -11.765625 "/></g></g></g><g fill="#000000" fill-opacity="1"><g transform="translate(435.85204, 380.765966)"><g><path d="M 13.125 -6.546875 C 13.125 -5.546875 12.992188 -4.628906 12.734375 -3.796875 C 12.484375 -2.972656 12.101562 -2.265625 11.59375 -1.671875 C 11.09375 -1.078125 10.46875 -0.617188 9.71875 -0.296875 C 8.976562 0.015625 8.117188 0.171875 7.140625 0.171875 C 6.117188 0.171875 5.234375 0.015625 4.484375 -0.296875 C 3.734375 -0.617188 3.109375 -1.078125 2.609375 -1.671875 C 2.109375 -2.273438 1.734375 -2.988281 1.484375 -3.8125 C 1.242188 -4.644531 1.125 -5.566406 1.125 -6.578125 C 1.125 -7.910156 1.34375 -9.078125 1.78125 -10.078125 C 2.21875 -11.085938 2.882812 -11.875 3.78125 -12.4375 C 4.675781 -13 5.800781 -13.28125 7.15625 -13.28125 C 8.457031 -13.28125 9.550781 -13 10.4375 -12.4375 C 11.320312 -11.882812 11.988281 -11.109375 12.4375 -10.109375 C 12.894531 -9.109375 13.125 -7.921875 13.125 -6.546875 Z M 2.71875 -6.546875 C 2.71875 -5.441406 2.875 -4.484375 3.1875 -3.671875 C 3.507812 -2.859375 3.992188 -2.234375 4.640625 -1.796875 C 5.296875 -1.359375 6.128906 -1.140625 7.140625 -1.140625 C 8.148438 -1.140625 8.976562 -1.359375 9.625 -1.796875 C 10.269531 -2.234375 10.75 -2.859375 11.0625 -3.671875 C 11.375 -4.484375 11.53125 -5.441406 11.53125 -6.546875 C 11.53125 -8.234375 11.175781 -9.550781 10.46875 -10.5 C 9.757812 -11.457031 8.65625 -11.9375 7.15625 -11.9375 C 6.144531 -11.9375 5.3125 -11.71875 4.65625 -11.28125 C 4 -10.84375 3.507812 -10.222656 3.1875 -9.421875 C 2.875 -8.617188 2.71875 -7.660156 2.71875 -6.546875 Z M 2.71875 -6.546875 "/></g></g></g><g fill="#000000" fill-opacity="1"><g transform="translate(453.593646, 380.765966)"><g><path d="M 7.375 -11.921875 C 6.65625 -11.921875 6.003906 -11.796875 5.421875 -11.546875 C 4.847656 -11.296875 4.359375 -10.9375 3.953125 -10.46875 C 3.554688 -10 3.25 -9.429688 3.03125 -8.765625 C 2.820312 -8.109375 2.71875 -7.367188 2.71875 -6.546875 C 2.71875 -5.453125 2.890625 -4.5 3.234375 -3.6875 C 3.578125 -2.882812 4.085938 -2.257812 4.765625 -1.8125 C 5.453125 -1.375 6.304688 -1.15625 7.328125 -1.15625 C 7.910156 -1.15625 8.457031 -1.203125 8.96875 -1.296875 C 9.488281 -1.398438 9.992188 -1.523438 10.484375 -1.671875 L 10.484375 -0.34375 C 10.003906 -0.164062 9.503906 -0.0351562 8.984375 0.046875 C 8.460938 0.128906 7.84375 0.171875 7.125 0.171875 C 5.789062 0.171875 4.675781 -0.0976562 3.78125 -0.640625 C 2.894531 -1.191406 2.226562 -1.972656 1.78125 -2.984375 C 1.34375 -3.992188 1.125 -5.179688 1.125 -6.546875 C 1.125 -7.535156 1.257812 -8.441406 1.53125 -9.265625 C 1.8125 -10.085938 2.21875 -10.796875 2.75 -11.390625 C 3.28125 -11.984375 3.9375 -12.441406 4.71875 -12.765625 C 5.5 -13.097656 6.390625 -13.265625 7.390625 -13.265625 C 8.054688 -13.265625 8.695312 -13.195312 9.3125 -13.0625 C 9.925781 -12.925781 10.476562 -12.738281 10.96875 -12.5 L 10.359375 -11.21875 C 9.941406 -11.40625 9.484375 -11.566406 8.984375 -11.703125 C 8.492188 -11.847656 7.957031 -11.921875 7.375 -11.921875 Z M 7.375 -11.921875 "/></g></g></g><g fill="#000000" fill-opacity="1"><g transform="translate(468.626144, 380.765966)"><g><path d="M 9.984375 0 L 8.375 -4.15625 L 3.140625 -4.15625 L 1.53125 0 L 0 0 L 5.109375 -13.125 L 6.484375 -13.125 L 11.5625 0 Z M 7.921875 -5.5 L 6.390625 -9.625 C 6.359375 -9.726562 6.300781 -9.898438 6.21875 -10.140625 C 6.132812 -10.390625 6.050781 -10.644531 5.96875 -10.90625 C 5.882812 -11.164062 5.816406 -11.378906 5.765625 -11.546875 C 5.703125 -11.296875 5.632812 -11.050781 5.5625 -10.8125 C 5.5 -10.570312 5.4375 -10.347656 5.375 -10.140625 C 5.3125 -9.929688 5.253906 -9.757812 5.203125 -9.625 L 3.640625 -5.5 Z M 7.921875 -5.5 "/></g></g></g><g fill="#000000" fill-opacity="1"><g transform="translate(483.703362, 380.765966)"><g><path d="M 5.3125 -13.078125 C 6.394531 -13.078125 7.285156 -12.941406 7.984375 -12.671875 C 8.679688 -12.410156 9.203125 -12.007812 9.546875 -11.46875 C 9.890625 -10.925781 10.0625 -10.234375 10.0625 -9.390625 C 10.0625 -8.691406 9.9375 -8.113281 9.6875 -7.65625 C 9.4375 -7.195312 9.109375 -6.820312 8.703125 -6.53125 C 8.296875 -6.25 7.863281 -6.03125 7.40625 -5.875 L 11 0 L 9.234375 0 L 6.03125 -5.453125 L 3.3125 -5.453125 L 3.3125 0 L 1.78125 0 L 1.78125 -13.078125 Z M 5.234375 -11.765625 L 3.3125 -11.765625 L 3.3125 -6.734375 L 5.390625 -6.734375 C 6.453125 -6.734375 7.234375 -6.953125 7.734375 -7.390625 C 8.242188 -7.828125 8.5 -8.46875 8.5 -9.3125 C 8.5 -10.207031 8.226562 -10.835938 7.6875 -11.203125 C 7.15625 -11.578125 6.335938 -11.765625 5.234375 -11.765625 Z M 5.234375 -11.765625 "/></g></g></g><g fill="#000000" fill-opacity="1"><g transform="translate(498.503406, 380.765966)"><g/></g></g><g fill="#000000" fill-opacity="1"><g transform="translate(506.758665, 380.765966)"><g><path d="M 5.203125 -13.078125 C 6.890625 -13.078125 8.117188 -12.742188 8.890625 -12.078125 C 9.671875 -11.421875 10.0625 -10.476562 10.0625 -9.25 C 10.0625 -8.695312 9.96875 -8.171875 9.78125 -7.671875 C 9.601562 -7.179688 9.3125 -6.742188 8.90625 -6.359375 C 8.507812 -5.984375 7.976562 -5.6875 7.3125 -5.46875 C 6.65625 -5.25 5.851562 -5.140625 4.90625 -5.140625 L 3.3125 -5.140625 L 3.3125 0 L 1.78125 0 L 1.78125 -13.078125 Z M 5.0625 -11.78125 L 3.3125 -11.78125 L 3.3125 -6.453125 L 4.734375 -6.453125 C 5.566406 -6.453125 6.257812 -6.539062 6.8125 -6.71875 C 7.375 -6.894531 7.796875 -7.179688 8.078125 -7.578125 C 8.359375 -7.984375 8.5 -8.519531 8.5 -9.1875 C 8.5 -10.0625 8.21875 -10.710938 7.65625 -11.140625 C 7.101562 -11.566406 6.238281 -11.78125 5.0625 -11.78125 Z M 5.0625 -11.78125 "/></g></g></g><g fill="#000000" fill-opacity="1"><g transform="translate(521.272599, 380.765966)"><g><path d="M 13.125 -6.546875 C 13.125 -5.546875 12.992188 -4.628906 12.734375 -3.796875 C 12.484375 -2.972656 12.101562 -2.265625 11.59375 -1.671875 C 11.09375 -1.078125 10.46875 -0.617188 9.71875 -0.296875 C 8.976562 0.015625 8.117188 0.171875 7.140625 0.171875 C 6.117188 0.171875 5.234375 0.015625 4.484375 -0.296875 C 3.734375 -0.617188 3.109375 -1.078125 2.609375 -1.671875 C 2.109375 -2.273438 1.734375 -2.988281 1.484375 -3.8125 C 1.242188 -4.644531 1.125 -5.566406 1.125 -6.578125 C 1.125 -7.910156 1.34375 -9.078125 1.78125 -10.078125 C 2.21875 -11.085938 2.882812 -11.875 3.78125 -12.4375 C 4.675781 -13 5.800781 -13.28125 7.15625 -13.28125 C 8.457031 -13.28125 9.550781 -13 10.4375 -12.4375 C 11.320312 -11.882812 11.988281 -11.109375 12.4375 -10.109375 C 12.894531 -9.109375 13.125 -7.921875 13.125 -6.546875 Z M 2.71875 -6.546875 C 2.71875 -5.441406 2.875 -4.484375 3.1875 -3.671875 C 3.507812 -2.859375 3.992188 -2.234375 4.640625 -1.796875 C 5.296875 -1.359375 6.128906 -1.140625 7.140625 -1.140625 C 8.148438 -1.140625 8.976562 -1.359375 9.625 -1.796875 C 10.269531 -2.234375 10.75 -2.859375 11.0625 -3.671875 C 11.375 -4.484375 11.53125 -5.441406 11.53125 -6.546875 C 11.53125 -8.234375 11.175781 -9.550781 10.46875 -10.5 C 9.757812 -11.457031 8.65625 -11.9375 7.15625 -11.9375 C 6.144531 -11.9375 5.3125 -11.71875 4.65625 -11.28125 C 4 -10.84375 3.507812 -10.222656 3.1875 -9.421875 C 2.875 -8.617188 2.71875 -7.660156 2.71875 -6.546875 Z M 2.71875 -6.546875 "/></g></g></g><g fill="#000000" fill-opacity="1"><g transform="translate(539.014205, 380.765966)"><g><path d="M 5.3125 -13.078125 C 6.394531 -13.078125 7.285156 -12.941406 7.984375 -12.671875 C 8.679688 -12.410156 9.203125 -12.007812 9.546875 -11.46875 C 9.890625 -10.925781 10.0625 -10.234375 10.0625 -9.390625 C 10.0625 -8.691406 9.9375 -8.113281 9.6875 -7.65625 C 9.4375 -7.195312 9.109375 -6.820312 8.703125 -6.53125 C 8.296875 -6.25 7.863281 -6.03125 7.40625 -5.875 L 11 0 L 9.234375 0 L 6.03125 -5.453125 L 3.3125 -5.453125 L 3.3125 0 L 1.78125 0 L 1.78125 -13.078125 Z M 5.234375 -11.765625 L 3.3125 -11.765625 L 3.3125 -6.734375 L 5.390625 -6.734375 C 6.453125 -6.734375 7.234375 -6.953125 7.734375 -7.390625 C 8.242188 -7.828125 8.5 -8.46875 8.5 -9.3125 C 8.5 -10.207031 8.226562 -10.835938 7.6875 -11.203125 C 7.15625 -11.578125 6.335938 -11.765625 5.234375 -11.765625 Z M 5.234375 -11.765625 "/></g></g></g><g fill="#000000" fill-opacity="1"><g transform="translate(553.814207, 380.765966)"><g/></g></g><g fill="#000000" fill-opacity="1"><g transform="translate(562.069465, 380.765966)"><g><path d="M 12.171875 -6.65625 C 12.171875 -5.1875 11.898438 -3.957031 11.359375 -2.96875 C 10.828125 -1.988281 10.050781 -1.25 9.03125 -0.75 C 8.019531 -0.25 6.789062 0 5.34375 0 L 1.78125 0 L 1.78125 -13.078125 L 5.734375 -13.078125 C 7.054688 -13.078125 8.195312 -12.832031 9.15625 -12.34375 C 10.125 -11.851562 10.867188 -11.132812 11.390625 -10.1875 C 11.910156 -9.238281 12.171875 -8.0625 12.171875 -6.65625 Z M 10.5625 -6.609375 C 10.5625 -7.785156 10.363281 -8.753906 9.96875 -9.515625 C 9.582031 -10.273438 9.015625 -10.84375 8.265625 -11.21875 C 7.515625 -11.59375 6.59375 -11.78125 5.5 -11.78125 L 3.3125 -11.78125 L 3.3125 -1.3125 L 5.15625 -1.3125 C 6.957031 -1.3125 8.304688 -1.753906 9.203125 -2.640625 C 10.109375 -3.523438 10.5625 -4.847656 10.5625 -6.609375 Z M 10.5625 -6.609375 "/></g></g></g><g fill="#000000" fill-opacity="1"><g transform="translate(578.854365, 380.765966)"><g><path d="M 9.0625 0 L 1.78125 0 L 1.78125 -13.078125 L 9.0625 -13.078125 L 9.0625 -11.734375 L 3.3125 -11.734375 L 3.3125 -7.5 L 8.734375 -7.5 L 8.734375 -6.171875 L 3.3125 -6.171875 L 3.3125 -1.34375 L 9.0625 -1.34375 Z M 9.0625 0 "/></g></g></g><g fill="#000000" fill-opacity="1"><g transform="translate(592.52784, 380.765966)"><g><path d="M 9.171875 -3.484375 C 9.171875 -2.703125 8.976562 -2.035156 8.59375 -1.484375 C 8.207031 -0.941406 7.664062 -0.53125 6.96875 -0.25 C 6.28125 0.03125 5.46875 0.171875 4.53125 0.171875 C 4.039062 0.171875 3.570312 0.144531 3.125 0.09375 C 2.6875 0.0507812 2.28125 -0.0078125 1.90625 -0.09375 C 1.539062 -0.1875 1.21875 -0.296875 0.9375 -0.421875 L 0.9375 -1.890625 C 1.382812 -1.703125 1.929688 -1.53125 2.578125 -1.375 C 3.222656 -1.21875 3.894531 -1.140625 4.59375 -1.140625 C 5.25 -1.140625 5.800781 -1.222656 6.25 -1.390625 C 6.707031 -1.566406 7.050781 -1.820312 7.28125 -2.15625 C 7.519531 -2.488281 7.640625 -2.890625 7.640625 -3.359375 C 7.640625 -3.804688 7.539062 -4.175781 7.34375 -4.46875 C 7.15625 -4.769531 6.832031 -5.046875 6.375 -5.296875 C 5.914062 -5.546875 5.289062 -5.8125 4.5 -6.09375 C 3.945312 -6.289062 3.457031 -6.503906 3.03125 -6.734375 C 2.613281 -6.972656 2.257812 -7.238281 1.96875 -7.53125 C 1.6875 -7.832031 1.472656 -8.179688 1.328125 -8.578125 C 1.179688 -8.972656 1.109375 -9.421875 1.109375 -9.921875 C 1.109375 -10.617188 1.285156 -11.21875 1.640625 -11.71875 C 1.992188 -12.21875 2.484375 -12.597656 3.109375 -12.859375 C 3.742188 -13.128906 4.46875 -13.265625 5.28125 -13.265625 C 5.976562 -13.265625 6.625 -13.195312 7.21875 -13.0625 C 7.8125 -12.925781 8.359375 -12.75 8.859375 -12.53125 L 8.375 -11.234375 C 7.90625 -11.429688 7.40625 -11.59375 6.875 -11.71875 C 6.351562 -11.851562 5.8125 -11.921875 5.25 -11.921875 C 4.6875 -11.921875 4.210938 -11.835938 3.828125 -11.671875 C 3.441406 -11.503906 3.144531 -11.269531 2.9375 -10.96875 C 2.738281 -10.675781 2.640625 -10.328125 2.640625 -9.921875 C 2.640625 -9.460938 2.738281 -9.078125 2.9375 -8.765625 C 3.132812 -8.460938 3.441406 -8.191406 3.859375 -7.953125 C 4.285156 -7.722656 4.851562 -7.476562 5.5625 -7.21875 C 6.332031 -6.9375 6.984375 -6.640625 7.515625 -6.328125 C 8.054688 -6.015625 8.46875 -5.632812 8.75 -5.1875 C 9.03125 -4.738281 9.171875 -4.171875 9.171875 -3.484375 Z M 9.171875 -3.484375 "/></g></g></g><g fill="#000000" fill-opacity="1"><g transform="translate(606.067196, 380.765966)"><g><path d="M 7.375 -11.921875 C 6.65625 -11.921875 6.003906 -11.796875 5.421875 -11.546875 C 4.847656 -11.296875 4.359375 -10.9375 3.953125 -10.46875 C 3.554688 -10 3.25 -9.429688 3.03125 -8.765625 C 2.820312 -8.109375 2.71875 -7.367188 2.71875 -6.546875 C 2.71875 -5.453125 2.890625 -4.5 3.234375 -3.6875 C 3.578125 -2.882812 4.085938 -2.257812 4.765625 -1.8125 C 5.453125 -1.375 6.304688 -1.15625 7.328125 -1.15625 C 7.910156 -1.15625 8.457031 -1.203125 8.96875 -1.296875 C 9.488281 -1.398438 9.992188 -1.523438 10.484375 -1.671875 L 10.484375 -0.34375 C 10.003906 -0.164062 9.503906 -0.0351562 8.984375 0.046875 C 8.460938 0.128906 7.84375 0.171875 7.125 0.171875 C 5.789062 0.171875 4.675781 -0.0976562 3.78125 -0.640625 C 2.894531 -1.191406 2.226562 -1.972656 1.78125 -2.984375 C 1.34375 -3.992188 1.125 -5.179688 1.125 -6.546875 C 1.125 -7.535156 1.257812 -8.441406 1.53125 -9.265625 C 1.8125 -10.085938 2.21875 -10.796875 2.75 -11.390625 C 3.28125 -11.984375 3.9375 -12.441406 4.71875 -12.765625 C 5.5 -13.097656 6.390625 -13.265625 7.390625 -13.265625 C 8.054688 -13.265625 8.695312 -13.195312 9.3125 -13.0625 C 9.925781 -12.925781 10.476562 -12.738281 10.96875 -12.5 L 10.359375 -11.21875 C 9.941406 -11.40625 9.484375 -11.566406 8.984375 -11.703125 C 8.492188 -11.847656 7.957031 -11.921875 7.375 -11.921875 Z M 7.375 -11.921875 "/></g></g></g><g fill="#000000" fill-opacity="1"><g transform="translate(621.099694, 380.765966)"><g><path d="M 13.125 -6.546875 C 13.125 -5.546875 12.992188 -4.628906 12.734375 -3.796875 C 12.484375 -2.972656 12.101562 -2.265625 11.59375 -1.671875 C 11.09375 -1.078125 10.46875 -0.617188 9.71875 -0.296875 C 8.976562 0.015625 8.117188 0.171875 7.140625 0.171875 C 6.117188 0.171875 5.234375 0.015625 4.484375 -0.296875 C 3.734375 -0.617188 3.109375 -1.078125 2.609375 -1.671875 C 2.109375 -2.273438 1.734375 -2.988281 1.484375 -3.8125 C 1.242188 -4.644531 1.125 -5.566406 1.125 -6.578125 C 1.125 -7.910156 1.34375 -9.078125 1.78125 -10.078125 C 2.21875 -11.085938 2.882812 -11.875 3.78125 -12.4375 C 4.675781 -13 5.800781 -13.28125 7.15625 -13.28125 C 8.457031 -13.28125 9.550781 -13 10.4375 -12.4375 C 11.320312 -11.882812 11.988281 -11.109375 12.4375 -10.109375 C 12.894531 -9.109375 13.125 -7.921875 13.125 -6.546875 Z M 2.71875 -6.546875 C 2.71875 -5.441406 2.875 -4.484375 3.1875 -3.671875 C 3.507812 -2.859375 3.992188 -2.234375 4.640625 -1.796875 C 5.296875 -1.359375 6.128906 -1.140625 7.140625 -1.140625 C 8.148438 -1.140625 8.976562 -1.359375 9.625 -1.796875 C 10.269531 -2.234375 10.75 -2.859375 11.0625 -3.671875 C 11.375 -4.484375 11.53125 -5.441406 11.53125 -6.546875 C 11.53125 -8.234375 11.175781 -9.550781 10.46875 -10.5 C 9.757812 -11.457031 8.65625 -11.9375 7.15625 -11.9375 C 6.144531 -11.9375 5.3125 -11.71875 4.65625 -11.28125 C 4 -10.84375 3.507812 -10.222656 3.1875 -9.421875 C 2.875 -8.617188 2.71875 -7.660156 2.71875 -6.546875 Z M 2.71875 -6.546875 "/></g></g></g><g fill="#000000" fill-opacity="1"><g transform="translate(638.8413, 380.765966)"><g><path d="M 12.015625 0 L 10.25 0 L 3.125 -10.984375 L 3.0625 -10.984375 C 3.070312 -10.691406 3.085938 -10.359375 3.109375 -9.984375 C 3.140625 -9.609375 3.160156 -9.207031 3.171875 -8.78125 C 3.191406 -8.363281 3.203125 -7.941406 3.203125 -7.515625 L 3.203125 0 L 1.78125 0 L 1.78125 -13.078125 L 3.53125 -13.078125 L 10.625 -2.125 L 10.6875 -2.125 C 10.675781 -2.332031 10.660156 -2.628906 10.640625 -3.015625 C 10.628906 -3.398438 10.613281 -3.8125 10.59375 -4.25 C 10.582031 -4.695312 10.578125 -5.113281 10.578125 -5.5 L 10.578125 -13.078125 L 12.015625 -13.078125 Z M 12.015625 0 "/></g></g></g><g fill="#000000" fill-opacity="1"><g transform="translate(656.126892, 380.765966)"><g><path d="M 5.796875 0 L 4.28125 0 L 4.28125 -11.734375 L 0.15625 -11.734375 L 0.15625 -13.078125 L 9.890625 -13.078125 L 9.890625 -11.734375 L 5.796875 -11.734375 Z M 5.796875 0 "/></g></g></g><g fill="#000000" fill-opacity="1"><g transform="translate(669.710969, 380.765966)"><g><path d="M 13.125 -6.546875 C 13.125 -5.546875 12.992188 -4.628906 12.734375 -3.796875 C 12.484375 -2.972656 12.101562 -2.265625 11.59375 -1.671875 C 11.09375 -1.078125 10.46875 -0.617188 9.71875 -0.296875 C 8.976562 0.015625 8.117188 0.171875 7.140625 0.171875 C 6.117188 0.171875 5.234375 0.015625 4.484375 -0.296875 C 3.734375 -0.617188 3.109375 -1.078125 2.609375 -1.671875 C 2.109375 -2.273438 1.734375 -2.988281 1.484375 -3.8125 C 1.242188 -4.644531 1.125 -5.566406 1.125 -6.578125 C 1.125 -7.910156 1.34375 -9.078125 1.78125 -10.078125 C 2.21875 -11.085938 2.882812 -11.875 3.78125 -12.4375 C 4.675781 -13 5.800781 -13.28125 7.15625 -13.28125 C 8.457031 -13.28125 9.550781 -13 10.4375 -12.4375 C 11.320312 -11.882812 11.988281 -11.109375 12.4375 -10.109375 C 12.894531 -9.109375 13.125 -7.921875 13.125 -6.546875 Z M 2.71875 -6.546875 C 2.71875 -5.441406 2.875 -4.484375 3.1875 -3.671875 C 3.507812 -2.859375 3.992188 -2.234375 4.640625 -1.796875 C 5.296875 -1.359375 6.128906 -1.140625 7.140625 -1.140625 C 8.148438 -1.140625 8.976562 -1.359375 9.625 -1.796875 C 10.269531 -2.234375 10.75 -2.859375 11.0625 -3.671875 C 11.375 -4.484375 11.53125 -5.441406 11.53125 -6.546875 C 11.53125 -8.234375 11.175781 -9.550781 10.46875 -10.5 C 9.757812 -11.457031 8.65625 -11.9375 7.15625 -11.9375 C 6.144531 -11.9375 5.3125 -11.71875 4.65625 -11.28125 C 4 -10.84375 3.507812 -10.222656 3.1875 -9.421875 C 2.875 -8.617188 2.71875 -7.660156 2.71875 -6.546875 Z M 2.71875 -6.546875 "/></g></g></g><g fill="#000000" fill-opacity="1"><g transform="translate(687.452575, 380.765966)"><g><path d="M 9.171875 -3.484375 C 9.171875 -2.703125 8.976562 -2.035156 8.59375 -1.484375 C 8.207031 -0.941406 7.664062 -0.53125 6.96875 -0.25 C 6.28125 0.03125 5.46875 0.171875 4.53125 0.171875 C 4.039062 0.171875 3.570312 0.144531 3.125 0.09375 C 2.6875 0.0507812 2.28125 -0.0078125 1.90625 -0.09375 C 1.539062 -0.1875 1.21875 -0.296875 0.9375 -0.421875 L 0.9375 -1.890625 C 1.382812 -1.703125 1.929688 -1.53125 2.578125 -1.375 C 3.222656 -1.21875 3.894531 -1.140625 4.59375 -1.140625 C 5.25 -1.140625 5.800781 -1.222656 6.25 -1.390625 C 6.707031 -1.566406 7.050781 -1.820312 7.28125 -2.15625 C 7.519531 -2.488281 7.640625 -2.890625 7.640625 -3.359375 C 7.640625 -3.804688 7.539062 -4.175781 7.34375 -4.46875 C 7.15625 -4.769531 6.832031 -5.046875 6.375 -5.296875 C 5.914062 -5.546875 5.289062 -5.8125 4.5 -6.09375 C 3.945312 -6.289062 3.457031 -6.503906 3.03125 -6.734375 C 2.613281 -6.972656 2.257812 -7.238281 1.96875 -7.53125 C 1.6875 -7.832031 1.472656 -8.179688 1.328125 -8.578125 C 1.179688 -8.972656 1.109375 -9.421875 1.109375 -9.921875 C 1.109375 -10.617188 1.285156 -11.21875 1.640625 -11.71875 C 1.992188 -12.21875 2.484375 -12.597656 3.109375 -12.859375 C 3.742188 -13.128906 4.46875 -13.265625 5.28125 -13.265625 C 5.976562 -13.265625 6.625 -13.195312 7.21875 -13.0625 C 7.8125 -12.925781 8.359375 -12.75 8.859375 -12.53125 L 8.375 -11.234375 C 7.90625 -11.429688 7.40625 -11.59375 6.875 -11.71875 C 6.351562 -11.851562 5.8125 -11.921875 5.25 -11.921875 C 4.6875 -11.921875 4.210938 -11.835938 3.828125 -11.671875 C 3.441406 -11.503906 3.144531 -11.269531 2.9375 -10.96875 C 2.738281 -10.675781 2.640625 -10.328125 2.640625 -9.921875 C 2.640625 -9.460938 2.738281 -9.078125 2.9375 -8.765625 C 3.132812 -8.460938 3.441406 -8.191406 3.859375 -7.953125 C 4.285156 -7.722656 4.851562 -7.476562 5.5625 -7.21875 C 6.332031 -6.9375 6.984375 -6.640625 7.515625 -6.328125 C 8.054688 -6.015625 8.46875 -5.632812 8.75 -5.1875 C 9.03125 -4.738281 9.171875 -4.171875 9.171875 -3.484375 Z M 9.171875 -3.484375 "/></g></g></g><g fill="#000000" fill-opacity="1"><g transform="translate(700.991931, 380.765966)"><g/></g></g><g fill="#000000" fill-opacity="1"><g transform="translate(709.24719, 380.765966)"><g><path d="M 9.0625 0 L 1.78125 0 L 1.78125 -13.078125 L 9.0625 -13.078125 L 9.0625 -11.734375 L 3.3125 -11.734375 L 3.3125 -7.5 L 8.734375 -7.5 L 8.734375 -6.171875 L 3.3125 -6.171875 L 3.3125 -1.34375 L 9.0625 -1.34375 Z M 9.0625 0 "/></g></g></g><g fill="#000000" fill-opacity="1"><g transform="translate(722.920665, 380.765966)"><g><path d="M 7.53125 0 L 3.140625 -11.578125 L 3.078125 -11.578125 C 3.097656 -11.328125 3.117188 -11.023438 3.140625 -10.671875 C 3.160156 -10.328125 3.175781 -9.945312 3.1875 -9.53125 C 3.195312 -9.113281 3.203125 -8.691406 3.203125 -8.265625 L 3.203125 0 L 1.78125 0 L 1.78125 -13.078125 L 4.046875 -13.078125 L 8.1875 -2.203125 L 8.25 -2.203125 L 12.453125 -13.078125 L 14.6875 -13.078125 L 14.6875 0 L 13.1875 0 L 13.1875 -8.375 C 13.1875 -8.757812 13.191406 -9.144531 13.203125 -9.53125 C 13.210938 -9.925781 13.222656 -10.296875 13.234375 -10.640625 C 13.253906 -10.992188 13.273438 -11.296875 13.296875 -11.546875 L 13.21875 -11.546875 L 8.78125 0 Z M 7.53125 0 "/></g></g></g><g fill="#000000" fill-opacity="1"><g transform="translate(336.870646, 401.881392)"><g><path d="M 12.015625 0 L 10.25 0 L 3.125 -10.984375 L 3.0625 -10.984375 C 3.070312 -10.691406 3.085938 -10.359375 3.109375 -9.984375 C 3.140625 -9.609375 3.160156 -9.207031 3.171875 -8.78125 C 3.191406 -8.363281 3.203125 -7.941406 3.203125 -7.515625 L 3.203125 0 L 1.78125 0 L 1.78125 -13.078125 L 3.53125 -13.078125 L 10.625 -2.125 L 10.6875 -2.125 C 10.675781 -2.332031 10.660156 -2.628906 10.640625 -3.015625 C 10.628906 -3.398438 10.613281 -3.8125 10.59375 -4.25 C 10.582031 -4.695312 10.578125 -5.113281 10.578125 -5.5 L 10.578125 -13.078125 L 12.015625 -13.078125 Z M 12.015625 0 "/></g></g></g><g fill="#000000" fill-opacity="1"><g transform="translate(354.156248, 401.881392)"><g><path d="M 13.125 -6.546875 C 13.125 -5.546875 12.992188 -4.628906 12.734375 -3.796875 C 12.484375 -2.972656 12.101562 -2.265625 11.59375 -1.671875 C 11.09375 -1.078125 10.46875 -0.617188 9.71875 -0.296875 C 8.976562 0.015625 8.117188 0.171875 7.140625 0.171875 C 6.117188 0.171875 5.234375 0.015625 4.484375 -0.296875 C 3.734375 -0.617188 3.109375 -1.078125 2.609375 -1.671875 C 2.109375 -2.273438 1.734375 -2.988281 1.484375 -3.8125 C 1.242188 -4.644531 1.125 -5.566406 1.125 -6.578125 C 1.125 -7.910156 1.34375 -9.078125 1.78125 -10.078125 C 2.21875 -11.085938 2.882812 -11.875 3.78125 -12.4375 C 4.675781 -13 5.800781 -13.28125 7.15625 -13.28125 C 8.457031 -13.28125 9.550781 -13 10.4375 -12.4375 C 11.320312 -11.882812 11.988281 -11.109375 12.4375 -10.109375 C 12.894531 -9.109375 13.125 -7.921875 13.125 -6.546875 Z M 2.71875 -6.546875 C 2.71875 -5.441406 2.875 -4.484375 3.1875 -3.671875 C 3.507812 -2.859375 3.992188 -2.234375 4.640625 -1.796875 C 5.296875 -1.359375 6.128906 -1.140625 7.140625 -1.140625 C 8.148438 -1.140625 8.976562 -1.359375 9.625 -1.796875 C 10.269531 -2.234375 10.75 -2.859375 11.0625 -3.671875 C 11.375 -4.484375 11.53125 -5.441406 11.53125 -6.546875 C 11.53125 -8.234375 11.175781 -9.550781 10.46875 -10.5 C 9.757812 -11.457031 8.65625 -11.9375 7.15625 -11.9375 C 6.144531 -11.9375 5.3125 -11.71875 4.65625 -11.28125 C 4 -10.84375 3.507812 -10.222656 3.1875 -9.421875 C 2.875 -8.617188 2.71875 -7.660156 2.71875 -6.546875 Z M 2.71875 -6.546875 "/></g></g></g><g fill="#000000" fill-opacity="1"><g transform="translate(371.897843, 401.881392)"><g><path d="M 9.171875 -3.484375 C 9.171875 -2.703125 8.976562 -2.035156 8.59375 -1.484375 C 8.207031 -0.941406 7.664062 -0.53125 6.96875 -0.25 C 6.28125 0.03125 5.46875 0.171875 4.53125 0.171875 C 4.039062 0.171875 3.570312 0.144531 3.125 0.09375 C 2.6875 0.0507812 2.28125 -0.0078125 1.90625 -0.09375 C 1.539062 -0.1875 1.21875 -0.296875 0.9375 -0.421875 L 0.9375 -1.890625 C 1.382812 -1.703125 1.929688 -1.53125 2.578125 -1.375 C 3.222656 -1.21875 3.894531 -1.140625 4.59375 -1.140625 C 5.25 -1.140625 5.800781 -1.222656 6.25 -1.390625 C 6.707031 -1.566406 7.050781 -1.820312 7.28125 -2.15625 C 7.519531 -2.488281 7.640625 -2.890625 7.640625 -3.359375 C 7.640625 -3.804688 7.539062 -4.175781 7.34375 -4.46875 C 7.15625 -4.769531 6.832031 -5.046875 6.375 -5.296875 C 5.914062 -5.546875 5.289062 -5.8125 4.5 -6.09375 C 3.945312 -6.289062 3.457031 -6.503906 3.03125 -6.734375 C 2.613281 -6.972656 2.257812 -7.238281 1.96875 -7.53125 C 1.6875 -7.832031 1.472656 -8.179688 1.328125 -8.578125 C 1.179688 -8.972656 1.109375 -9.421875 1.109375 -9.921875 C 1.109375 -10.617188 1.285156 -11.21875 1.640625 -11.71875 C 1.992188 -12.21875 2.484375 -12.597656 3.109375 -12.859375 C 3.742188 -13.128906 4.46875 -13.265625 5.28125 -13.265625 C 5.976562 -13.265625 6.625 -13.195312 7.21875 -13.0625 C 7.8125 -12.925781 8.359375 -12.75 8.859375 -12.53125 L 8.375 -11.234375 C 7.90625 -11.429688 7.40625 -11.59375 6.875 -11.71875 C 6.351562 -11.851562 5.8125 -11.921875 5.25 -11.921875 C 4.6875 -11.921875 4.210938 -11.835938 3.828125 -11.671875 C 3.441406 -11.503906 3.144531 -11.269531 2.9375 -10.96875 C 2.738281 -10.675781 2.640625 -10.328125 2.640625 -9.921875 C 2.640625 -9.460938 2.738281 -9.078125 2.9375 -8.765625 C 3.132812 -8.460938 3.441406 -8.191406 3.859375 -7.953125 C 4.285156 -7.722656 4.851562 -7.476562 5.5625 -7.21875 C 6.332031 -6.9375 6.984375 -6.640625 7.515625 -6.328125 C 8.054688 -6.015625 8.46875 -5.632812 8.75 -5.1875 C 9.03125 -4.738281 9.171875 -4.171875 9.171875 -3.484375 Z M 9.171875 -3.484375 "/></g></g></g><g fill="#000000" fill-opacity="1"><g transform="translate(385.437199, 401.881392)"><g><path d="M 9.171875 -3.484375 C 9.171875 -2.703125 8.976562 -2.035156 8.59375 -1.484375 C 8.207031 -0.941406 7.664062 -0.53125 6.96875 -0.25 C 6.28125 0.03125 5.46875 0.171875 4.53125 0.171875 C 4.039062 0.171875 3.570312 0.144531 3.125 0.09375 C 2.6875 0.0507812 2.28125 -0.0078125 1.90625 -0.09375 C 1.539062 -0.1875 1.21875 -0.296875 0.9375 -0.421875 L 0.9375 -1.890625 C 1.382812 -1.703125 1.929688 -1.53125 2.578125 -1.375 C 3.222656 -1.21875 3.894531 -1.140625 4.59375 -1.140625 C 5.25 -1.140625 5.800781 -1.222656 6.25 -1.390625 C 6.707031 -1.566406 7.050781 -1.820312 7.28125 -2.15625 C 7.519531 -2.488281 7.640625 -2.890625 7.640625 -3.359375 C 7.640625 -3.804688 7.539062 -4.175781 7.34375 -4.46875 C 7.15625 -4.769531 6.832031 -5.046875 6.375 -5.296875 C 5.914062 -5.546875 5.289062 -5.8125 4.5 -6.09375 C 3.945312 -6.289062 3.457031 -6.503906 3.03125 -6.734375 C 2.613281 -6.972656 2.257812 -7.238281 1.96875 -7.53125 C 1.6875 -7.832031 1.472656 -8.179688 1.328125 -8.578125 C 1.179688 -8.972656 1.109375 -9.421875 1.109375 -9.921875 C 1.109375 -10.617188 1.285156 -11.21875 1.640625 -11.71875 C 1.992188 -12.21875 2.484375 -12.597656 3.109375 -12.859375 C 3.742188 -13.128906 4.46875 -13.265625 5.28125 -13.265625 C 5.976562 -13.265625 6.625 -13.195312 7.21875 -13.0625 C 7.8125 -12.925781 8.359375 -12.75 8.859375 -12.53125 L 8.375 -11.234375 C 7.90625 -11.429688 7.40625 -11.59375 6.875 -11.71875 C 6.351562 -11.851562 5.8125 -11.921875 5.25 -11.921875 C 4.6875 -11.921875 4.210938 -11.835938 3.828125 -11.671875 C 3.441406 -11.503906 3.144531 -11.269531 2.9375 -10.96875 C 2.738281 -10.675781 2.640625 -10.328125 2.640625 -9.921875 C 2.640625 -9.460938 2.738281 -9.078125 2.9375 -8.765625 C 3.132812 -8.460938 3.441406 -8.191406 3.859375 -7.953125 C 4.285156 -7.722656 4.851562 -7.476562 5.5625 -7.21875 C 6.332031 -6.9375 6.984375 -6.640625 7.515625 -6.328125 C 8.054688 -6.015625 8.46875 -5.632812 8.75 -5.1875 C 9.03125 -4.738281 9.171875 -4.171875 9.171875 -3.484375 Z M 9.171875 -3.484375 "/></g></g></g><g fill="#000000" fill-opacity="1"><g transform="translate(398.976556, 401.881392)"><g><path d="M 9.984375 0 L 8.375 -4.15625 L 3.140625 -4.15625 L 1.53125 0 L 0 0 L 5.109375 -13.125 L 6.484375 -13.125 L 11.5625 0 Z M 7.921875 -5.5 L 6.390625 -9.625 C 6.359375 -9.726562 6.300781 -9.898438 6.21875 -10.140625 C 6.132812 -10.390625 6.050781 -10.644531 5.96875 -10.90625 C 5.882812 -11.164062 5.816406 -11.378906 5.765625 -11.546875 C 5.703125 -11.296875 5.632812 -11.050781 5.5625 -10.8125 C 5.5 -10.570312 5.4375 -10.347656 5.375 -10.140625 C 5.3125 -9.929688 5.253906 -9.757812 5.203125 -9.625 L 3.640625 -5.5 Z M 7.921875 -5.5 "/></g></g></g><g fill="#000000" fill-opacity="1"><g transform="translate(414.053752, 401.881392)"><g/></g></g><g fill="#000000" fill-opacity="1"><g transform="translate(422.309011, 401.881392)"><g><path d="M 1.78125 0 L 1.78125 -13.078125 L 3.3125 -13.078125 L 3.3125 -1.359375 L 9.109375 -1.359375 L 9.109375 0 Z M 1.78125 0 "/></g></g></g><g fill="#000000" fill-opacity="1"><g transform="translate(435.365557, 401.881392)"><g><path d="M 13.125 -6.546875 C 13.125 -5.546875 12.992188 -4.628906 12.734375 -3.796875 C 12.484375 -2.972656 12.101562 -2.265625 11.59375 -1.671875 C 11.09375 -1.078125 10.46875 -0.617188 9.71875 -0.296875 C 8.976562 0.015625 8.117188 0.171875 7.140625 0.171875 C 6.117188 0.171875 5.234375 0.015625 4.484375 -0.296875 C 3.734375 -0.617188 3.109375 -1.078125 2.609375 -1.671875 C 2.109375 -2.273438 1.734375 -2.988281 1.484375 -3.8125 C 1.242188 -4.644531 1.125 -5.566406 1.125 -6.578125 C 1.125 -7.910156 1.34375 -9.078125 1.78125 -10.078125 C 2.21875 -11.085938 2.882812 -11.875 3.78125 -12.4375 C 4.675781 -13 5.800781 -13.28125 7.15625 -13.28125 C 8.457031 -13.28125 9.550781 -13 10.4375 -12.4375 C 11.320312 -11.882812 11.988281 -11.109375 12.4375 -10.109375 C 12.894531 -9.109375 13.125 -7.921875 13.125 -6.546875 Z M 2.71875 -6.546875 C 2.71875 -5.441406 2.875 -4.484375 3.1875 -3.671875 C 3.507812 -2.859375 3.992188 -2.234375 4.640625 -1.796875 C 5.296875 -1.359375 6.128906 -1.140625 7.140625 -1.140625 C 8.148438 -1.140625 8.976562 -1.359375 9.625 -1.796875 C 10.269531 -2.234375 10.75 -2.859375 11.0625 -3.671875 C 11.375 -4.484375 11.53125 -5.441406 11.53125 -6.546875 C 11.53125 -8.234375 11.175781 -9.550781 10.46875 -10.5 C 9.757812 -11.457031 8.65625 -11.9375 7.15625 -11.9375 C 6.144531 -11.9375 5.3125 -11.71875 4.65625 -11.28125 C 4 -10.84375 3.507812 -10.222656 3.1875 -9.421875 C 2.875 -8.617188 2.71875 -7.660156 2.71875 -6.546875 Z M 2.71875 -6.546875 "/></g></g></g><g fill="#000000" fill-opacity="1"><g transform="translate(453.107152, 401.881392)"><g><path d="M -0.09375 3.4375 C -0.394531 3.4375 -0.65625 3.414062 -0.875 3.375 C -1.101562 3.332031 -1.300781 3.273438 -1.46875 3.203125 L -1.46875 1.90625 C -1.28125 1.96875 -1.070312 2.015625 -0.84375 2.046875 C -0.625 2.078125 -0.390625 2.09375 -0.140625 2.09375 C 0.191406 2.09375 0.5 2.023438 0.78125 1.890625 C 1.0625 1.765625 1.285156 1.546875 1.453125 1.234375 C 1.617188 0.921875 1.703125 0.484375 1.703125 -0.078125 L 1.703125 -13.078125 L 3.234375 -13.078125 L 3.234375 -0.1875 C 3.234375 0.625 3.097656 1.296875 2.828125 1.828125 C 2.554688 2.367188 2.171875 2.769531 1.671875 3.03125 C 1.179688 3.300781 0.59375 3.4375 -0.09375 3.4375 Z M -0.09375 3.4375 "/></g></g></g><g fill="#000000" fill-opacity="1"><g transform="translate(461.523348, 401.881392)"><g><path d="M 9.984375 0 L 8.375 -4.15625 L 3.140625 -4.15625 L 1.53125 0 L 0 0 L 5.109375 -13.125 L 6.484375 -13.125 L 11.5625 0 Z M 7.921875 -5.5 L 6.390625 -9.625 C 6.359375 -9.726562 6.300781 -9.898438 6.21875 -10.140625 C 6.132812 -10.390625 6.050781 -10.644531 5.96875 -10.90625 C 5.882812 -11.164062 5.816406 -11.378906 5.765625 -11.546875 C 5.703125 -11.296875 5.632812 -11.050781 5.5625 -10.8125 C 5.5 -10.570312 5.4375 -10.347656 5.375 -10.140625 C 5.3125 -9.929688 5.253906 -9.757812 5.203125 -9.625 L 3.640625 -5.5 Z M 7.921875 -5.5 "/></g></g></g><g fill="#2c502f" fill-opacity="1"><g transform="translate(206.925835, 326.985504)"><g><path d="M 78.625 -10.8125 C 79.738281 -7.976562 81.023438 -5.914062 82.484375 -4.625 C 83.941406 -3.34375 85.351562 -2.660156 86.71875 -2.578125 L 86.71875 0 C 81.570312 -0.257812 75.054688 -0.390625 67.171875 -0.390625 C 58.421875 -0.390625 51.898438 -0.257812 47.609375 0 L 47.609375 -2.578125 C 50.867188 -2.742188 53.179688 -3.148438 54.546875 -3.796875 C 55.921875 -4.441406 56.609375 -5.578125 56.609375 -7.203125 C 56.609375 -8.742188 56.097656 -10.800781 55.078125 -13.375 L 47.34375 -34.484375 L 19.296875 -34.484375 L 15.953125 -25.609375 C 13.554688 -19.429688 12.359375 -14.671875 12.359375 -11.328125 C 12.359375 -8.148438 13.320312 -5.9375 15.25 -4.6875 C 17.175781 -3.445312 20.023438 -2.742188 23.796875 -2.578125 L 23.796875 0 C 17.960938 -0.257812 12.644531 -0.390625 7.84375 -0.390625 C 3.90625 -0.390625 0.644531 -0.257812 -1.9375 0 L -1.9375 -2.578125 C 2.269531 -3.347656 5.960938 -7.847656 9.140625 -16.078125 L 38.46875 -91.359375 C 39.414062 -91.273438 40.914062 -91.234375 42.96875 -91.234375 C 45.03125 -91.234375 46.488281 -91.273438 47.34375 -91.359375 Z M 46.453125 -37.0625 L 33.71875 -71.796875 L 20.328125 -37.0625 Z M 46.453125 -37.0625 "/></g></g></g><g fill="#2c502f" fill-opacity="1"><g transform="translate(292.736215, 326.985504)"><g><path d="M 115.03125 -88.53125 C 112.113281 -88.351562 110.007812 -88.003906 108.71875 -87.484375 C 107.4375 -86.972656 106.554688 -85.988281 106.078125 -84.53125 C 105.609375 -83.070312 105.375 -80.710938 105.375 -77.453125 L 105.375 -13.640625 C 105.375 -10.378906 105.609375 -8.019531 106.078125 -6.5625 C 106.554688 -5.101562 107.457031 -4.113281 108.78125 -3.59375 C 110.113281 -3.082031 112.195312 -2.742188 115.03125 -2.578125 L 115.03125 0 C 110.3125 -0.257812 103.578125 -0.390625 94.828125 -0.390625 C 85.648438 -0.390625 78.875 -0.257812 74.5 0 L 74.5 -2.578125 C 77.59375 -2.742188 79.84375 -3.082031 81.25 -3.59375 C 82.664062 -4.113281 83.628906 -5.101562 84.140625 -6.5625 C 84.660156 -8.019531 84.921875 -10.378906 84.921875 -13.640625 L 84.921875 -80.9375 L 53.90625 0.125 L 51.859375 0.125 L 17.109375 -82.734375 L 17.109375 -21.109375 C 17.109375 -16.046875 17.363281 -12.332031 17.875 -9.96875 C 18.394531 -7.613281 19.507812 -5.898438 21.21875 -4.828125 C 22.9375 -3.753906 25.726562 -3.003906 29.59375 -2.578125 L 29.59375 0 C 26.25 -0.257812 21.617188 -0.390625 15.703125 -0.390625 C 10.984375 -0.390625 7.25 -0.257812 4.5 0 L 4.5 -2.578125 C 7.332031 -3.003906 9.410156 -3.734375 10.734375 -4.765625 C 12.066406 -5.796875 12.96875 -7.425781 13.4375 -9.65625 C 13.914062 -11.882812 14.15625 -15.1875 14.15625 -19.5625 L 14.15625 -77.453125 C 14.15625 -80.710938 13.914062 -83.070312 13.4375 -84.53125 C 12.96875 -85.988281 12.066406 -86.972656 10.734375 -87.484375 C 9.410156 -88.003906 7.332031 -88.351562 4.5 -88.53125 L 4.5 -91.09375 C 7.25 -90.84375 10.984375 -90.71875 15.703125 -90.71875 C 23.585938 -90.71875 30.363281 -90.84375 36.03125 -91.09375 L 62.015625 -28.4375 L 85.703125 -90.71875 L 94.828125 -90.71875 C 103.578125 -90.71875 110.3125 -90.84375 115.03125 -91.09375 Z M 115.03125 -88.53125 "/></g></g></g><g fill="#2c502f" fill-opacity="1"><g transform="translate(411.995913, 326.985504)"><g><path d="M 51.078125 -92.90625 C 60.171875 -92.90625 68.128906 -91.054688 74.953125 -87.359375 C 81.773438 -83.671875 87.070312 -78.332031 90.84375 -71.34375 C 94.613281 -64.351562 96.5 -56.015625 96.5 -46.328125 C 96.5 -36.890625 94.566406 -28.523438 90.703125 -21.234375 C 86.847656 -13.941406 81.46875 -8.28125 74.5625 -4.25 C 67.65625 -0.21875 59.785156 1.796875 50.953125 1.796875 C 41.859375 1.796875 33.898438 -0.046875 27.078125 -3.734375 C 20.265625 -7.421875 14.96875 -12.757812 11.1875 -19.75 C 7.414062 -26.738281 5.53125 -35.082031 5.53125 -44.78125 C 5.53125 -54.21875 7.457031 -62.582031 11.3125 -69.875 C 15.175781 -77.164062 20.5625 -82.828125 27.46875 -86.859375 C 34.375 -90.890625 42.242188 -92.90625 51.078125 -92.90625 Z M 50.5625 -90.578125 C 45.84375 -90.578125 41.679688 -88.671875 38.078125 -84.859375 C 34.484375 -81.046875 31.71875 -75.707031 29.78125 -68.84375 C 27.851562 -61.976562 26.890625 -54.128906 26.890625 -45.296875 C 26.890625 -36.367188 27.984375 -28.515625 30.171875 -21.734375 C 32.359375 -14.960938 35.316406 -9.734375 39.046875 -6.046875 C 42.785156 -2.359375 46.925781 -0.515625 51.46875 -0.515625 C 56.1875 -0.515625 60.347656 -2.421875 63.953125 -6.234375 C 67.554688 -10.054688 70.320312 -15.394531 72.25 -22.25 C 74.175781 -29.113281 75.140625 -36.96875 75.140625 -45.8125 C 75.140625 -54.726562 74.046875 -62.570312 71.859375 -69.34375 C 69.671875 -76.125 66.710938 -81.359375 62.984375 -85.046875 C 59.253906 -88.734375 55.113281 -90.578125 50.5625 -90.578125 Z M 50.5625 -90.578125 "/></g></g></g><g fill="#2c502f" fill-opacity="1"><g transform="translate(514.016353, 326.985504)"><g><path d="M 91.609375 -5.65625 C 89.296875 -3 86.804688 -1.09375 84.140625 0.0625 C 81.484375 1.21875 78.269531 1.796875 74.5 1.796875 C 69.519531 1.796875 65.59375 0.75 62.71875 -1.34375 C 59.851562 -3.445312 57.988281 -7.03125 57.125 -12.09375 L 54.8125 -24.96875 C 53.695312 -31.226562 52.34375 -35.835938 50.75 -38.796875 C 49.164062 -41.753906 46.53125 -43.234375 42.84375 -43.234375 L 34.484375 -43.234375 L 34.484375 -13.640625 C 34.484375 -10.378906 34.71875 -8.019531 35.1875 -6.5625 C 35.664062 -5.101562 36.546875 -4.113281 37.828125 -3.59375 C 39.117188 -3.082031 41.222656 -2.742188 44.140625 -2.578125 L 44.140625 0 C 39.503906 -0.257812 33.023438 -0.390625 24.703125 -0.390625 C 15.523438 -0.390625 8.75 -0.257812 4.375 0 L 4.375 -2.578125 C 7.207031 -2.742188 9.285156 -3.082031 10.609375 -3.59375 C 11.941406 -4.113281 12.84375 -5.101562 13.3125 -6.5625 C 13.789062 -8.019531 14.03125 -10.378906 14.03125 -13.640625 L 14.03125 -77.453125 C 14.03125 -80.710938 13.789062 -83.070312 13.3125 -84.53125 C 12.84375 -85.988281 11.941406 -86.972656 10.609375 -87.484375 C 9.285156 -88.003906 7.207031 -88.351562 4.375 -88.53125 L 4.375 -91.09375 C 8.75 -90.84375 15.269531 -90.71875 23.9375 -90.71875 L 38.21875 -90.84375 C 39.925781 -90.925781 41.898438 -90.96875 44.140625 -90.96875 C 55.972656 -90.96875 64.867188 -89.035156 70.828125 -85.171875 C 76.796875 -81.316406 79.78125 -75.785156 79.78125 -68.578125 C 79.78125 -62.492188 77.546875 -57.132812 73.078125 -52.5 C 68.617188 -47.863281 61.242188 -44.945312 50.953125 -43.75 C 58.671875 -43.0625 64.414062 -41.382812 68.1875 -38.71875 C 71.96875 -36.0625 74.414062 -32.078125 75.53125 -26.765625 L 78.484375 -13.515625 C 79.171875 -10.078125 79.960938 -7.671875 80.859375 -6.296875 C 81.765625 -4.929688 83.035156 -4.25 84.671875 -4.25 C 85.691406 -4.332031 86.566406 -4.585938 87.296875 -5.015625 C 88.023438 -5.441406 88.863281 -6.171875 89.8125 -7.203125 Z M 42.46875 -88.53125 C 40.144531 -88.53125 38.445312 -88.226562 37.375 -87.625 C 36.300781 -87.019531 35.550781 -85.945312 35.125 -84.40625 C 34.695312 -82.863281 34.484375 -80.546875 34.484375 -77.453125 L 34.484375 -45.8125 L 40.015625 -45.8125 C 47.046875 -45.8125 51.867188 -47.675781 54.484375 -51.40625 C 57.109375 -55.132812 58.421875 -60.390625 58.421875 -67.171875 C 58.421875 -74.203125 57.175781 -79.519531 54.6875 -83.125 C 52.195312 -86.726562 48.125 -88.53125 42.46875 -88.53125 Z M 42.46875 -88.53125 "/></g></g></g><g fill="#000000" fill-opacity="1"><g transform="translate(228.661969, 190.563775)"><g><path d="M 34.375 -21.328125 C 34.375 -17.835938 33.523438 -14.457031 31.828125 -11.1875 C 30.128906 -7.914062 27.585938 -5.234375 24.203125 -3.140625 C 20.828125 -1.046875 16.742188 0 11.953125 0 L 9.734375 -0.046875 C 7.972656 -0.109375 6.425781 -0.140625 5.09375 -0.140625 C 2.15625 -0.140625 -0.117188 -0.09375 -1.734375 0 L -1.59375 -0.90625 C -0.5625 -0.96875 0.21875 -1.085938 0.75 -1.265625 C 1.28125 -1.453125 1.703125 -1.8125 2.015625 -2.34375 C 2.335938 -2.875 2.648438 -3.695312 2.953125 -4.8125 L 8.90625 -27.375 C 9.15625 -28.1875 9.28125 -28.835938 9.28125 -29.328125 C 9.28125 -29.992188 9.054688 -30.476562 8.609375 -30.78125 C 8.171875 -31.082031 7.394531 -31.25 6.28125 -31.28125 L 6.40625 -32.1875 C 7.769531 -32.101562 9.769531 -32.0625 12.40625 -32.0625 L 13.875 -32.0625 C 17.050781 -32.144531 19.304688 -32.1875 20.640625 -32.1875 C 25.097656 -32.1875 28.5 -31.269531 30.84375 -29.4375 C 33.195312 -27.601562 34.375 -24.898438 34.375 -21.328125 Z M 11.953125 -0.8125 C 15.046875 -0.8125 17.726562 -1.890625 20 -4.046875 C 22.28125 -6.203125 24.019531 -8.96875 25.21875 -12.34375 C 26.414062 -15.726562 27.015625 -19.207031 27.015625 -22.78125 C 27.015625 -25.625 26.421875 -27.765625 25.234375 -29.203125 C 24.054688 -30.648438 22.191406 -31.375 19.640625 -31.375 C 18.847656 -31.375 18.265625 -31.273438 17.890625 -31.078125 C 17.515625 -30.878906 17.203125 -30.519531 16.953125 -30 C 16.710938 -29.488281 16.441406 -28.644531 16.140625 -27.46875 L 10.1875 -4.734375 C 9.851562 -3.398438 9.6875 -2.566406 9.6875 -2.234375 C 9.6875 -1.710938 9.859375 -1.34375 10.203125 -1.125 C 10.554688 -0.914062 11.140625 -0.8125 11.953125 -0.8125 Z M 11.953125 -0.8125 "/></g></g></g><g fill="#000000" fill-opacity="1"><g transform="translate(263.709108, 190.563775)"><g><path d="M 0.546875 -6.859375 C 0.546875 -9.347656 1.113281 -11.941406 2.25 -14.640625 C 3.382812 -17.335938 5.066406 -19.59375 7.296875 -21.40625 C 9.523438 -23.226562 12.1875 -24.140625 15.28125 -24.140625 C 17.644531 -24.140625 19.460938 -23.492188 20.734375 -22.203125 C 22.003906 -20.921875 22.640625 -19.066406 22.640625 -16.640625 C 22.640625 -14.148438 22.070312 -11.554688 20.9375 -8.859375 C 19.800781 -6.160156 18.117188 -3.898438 15.890625 -2.078125 C 13.660156 -0.265625 11 0.640625 7.90625 0.640625 C 5.539062 0.640625 3.722656 -0.00390625 2.453125 -1.296875 C 1.179688 -2.585938 0.546875 -4.441406 0.546875 -6.859375 Z M 15.046875 -23.234375 C 13.929688 -23.234375 12.703125 -22.15625 11.359375 -20 C 10.023438 -17.851562 8.90625 -15.21875 8 -12.09375 C 7.09375 -8.96875 6.640625 -6.054688 6.640625 -3.359375 C 6.640625 -2.273438 6.757812 -1.488281 7 -1 C 7.238281 -0.507812 7.632812 -0.265625 8.1875 -0.265625 C 9.300781 -0.265625 10.519531 -1.3125 11.84375 -3.40625 C 13.164062 -5.5 14.28125 -8.097656 15.1875 -11.203125 C 16.09375 -14.316406 16.546875 -17.265625 16.546875 -20.046875 C 16.546875 -21.234375 16.425781 -22.0625 16.1875 -22.53125 C 15.945312 -23 15.566406 -23.234375 15.046875 -23.234375 Z M 15.046875 -23.234375 "/></g></g></g><g fill="#000000" fill-opacity="1"><g transform="translate(287.755724, 190.563775)"><g><path d="M 22.5 -7.359375 L 23.375 -7.359375 L 22.234375 -4.046875 C 21.628906 -2.347656 20.785156 -1.140625 19.703125 -0.421875 C 18.628906 0.285156 17.472656 0.640625 16.234375 0.640625 C 14.660156 0.640625 13.539062 0.171875 12.875 -0.765625 C 12.445312 -1.316406 12.234375 -2.078125 12.234375 -3.046875 C 12.234375 -3.835938 12.367188 -4.734375 12.640625 -5.734375 C 11.609375 -3.484375 10.460938 -1.859375 9.203125 -0.859375 C 7.953125 0.140625 6.566406 0.640625 5.046875 0.640625 C 3.378906 0.640625 2.113281 0.148438 1.25 -0.828125 C 0.382812 -1.816406 -0.046875 -3.191406 -0.046875 -4.953125 C -0.046875 -7.648438 0.671875 -10.503906 2.109375 -13.515625 C 3.554688 -16.535156 5.382812 -19.0625 7.59375 -21.09375 C 9.800781 -23.125 11.96875 -24.140625 14.09375 -24.140625 C 14.914062 -24.140625 15.578125 -23.894531 16.078125 -23.40625 C 16.578125 -22.925781 16.867188 -22.203125 16.953125 -21.234375 L 17.59375 -23.46875 C 20.019531 -23.488281 22.21875 -23.710938 24.1875 -24.140625 L 18.234375 -3.859375 C 18.078125 -3.347656 18 -2.925781 18 -2.59375 C 18 -1.925781 18.289062 -1.59375 18.875 -1.59375 C 19.9375 -1.59375 20.875 -2.789062 21.6875 -5.1875 Z M 16.453125 -19.453125 C 16.484375 -19.609375 16.5 -19.835938 16.5 -20.140625 C 16.5 -20.898438 16.367188 -21.476562 16.109375 -21.875 C 15.859375 -22.269531 15.472656 -22.46875 14.953125 -22.46875 C 13.921875 -22.46875 12.742188 -21.539062 11.421875 -19.6875 C 10.109375 -17.84375 8.988281 -15.523438 8.0625 -12.734375 C 7.144531 -9.941406 6.6875 -7.242188 6.6875 -4.640625 C 6.6875 -3.640625 6.785156 -2.914062 6.984375 -2.46875 C 7.179688 -2.03125 7.503906 -1.8125 7.953125 -1.8125 C 8.617188 -1.8125 9.351562 -2.273438 10.15625 -3.203125 C 10.96875 -4.128906 11.773438 -5.460938 12.578125 -7.203125 C 13.378906 -8.953125 14.082031 -11.019531 14.6875 -13.40625 L 14.453125 -12.328125 Z M 16.453125 -19.453125 "/></g></g></g><g fill="#000000" fill-opacity="1"><g transform="translate(313.120574, 190.563775)"><g><path d="M 18.953125 -24.140625 C 20.109375 -24.140625 21.007812 -23.796875 21.65625 -23.109375 C 22.3125 -22.429688 22.640625 -21.550781 22.640625 -20.46875 C 22.640625 -19.15625 22.222656 -18.035156 21.390625 -17.109375 C 20.554688 -16.191406 19.535156 -15.734375 18.328125 -15.734375 C 17.441406 -15.734375 16.753906 -15.96875 16.265625 -16.4375 C 15.785156 -16.90625 15.546875 -17.578125 15.546875 -18.453125 C 15.546875 -19.515625 15.910156 -20.476562 16.640625 -21.34375 C 17.367188 -22.207031 18.265625 -22.757812 19.328125 -23 C 19.265625 -23 19.171875 -23.019531 19.046875 -23.0625 C 18.929688 -23.113281 18.828125 -23.140625 18.734375 -23.140625 C 17.191406 -23.140625 15.613281 -22.019531 14 -19.78125 C 12.394531 -17.539062 10.757812 -13.539062 9.09375 -7.78125 L 7.09375 0 L 0.6875 0 L 6.234375 -19.640625 C 6.378906 -20.128906 6.453125 -20.597656 6.453125 -21.046875 C 6.453125 -21.628906 6.210938 -21.921875 5.734375 -21.921875 C 5.148438 -21.921875 4.628906 -21.644531 4.171875 -21.09375 C 3.722656 -20.550781 3.257812 -19.628906 2.78125 -18.328125 L 1.90625 -16 L 1.046875 -16 L 2.28125 -19.453125 C 3.394531 -22.578125 5.484375 -24.140625 8.546875 -24.140625 C 10.878906 -24.140625 12.046875 -22.914062 12.046875 -20.46875 C 12.046875 -19.582031 11.925781 -18.6875 11.6875 -17.78125 L 11.328125 -16.328125 C 12.441406 -19.203125 13.582031 -21.222656 14.75 -22.390625 C 15.914062 -23.554688 17.316406 -24.140625 18.953125 -24.140625 Z M 18.953125 -24.140625 "/></g></g></g><g fill="#000000" fill-opacity="1"><g transform="translate(334.485238, 190.563775)"><g/></g></g><g fill="#000000" fill-opacity="1"><g transform="translate(346.076707, 190.563775)"><g><path d="M 21.28125 -20.546875 C 21.28125 -18.035156 19.867188 -15.835938 17.046875 -13.953125 C 14.234375 -12.078125 10.960938 -10.625 7.234375 -9.59375 C 7.046875 -8.5625 6.953125 -7.53125 6.953125 -6.5 C 6.953125 -4.894531 7.25 -3.757812 7.84375 -3.09375 C 8.4375 -2.425781 9.304688 -2.09375 10.453125 -2.09375 C 11.398438 -2.09375 12.460938 -2.382812 13.640625 -2.96875 C 14.816406 -3.5625 15.96875 -4.507812 17.09375 -5.8125 L 17.828125 -5.453125 C 16.734375 -3.753906 15.269531 -2.3125 13.4375 -1.125 C 11.601562 0.0507812 9.550781 0.640625 7.28125 0.640625 C 5.1875 0.640625 3.472656 0.078125 2.140625 -1.046875 C 0.804688 -2.171875 0.140625 -3.75 0.140625 -5.78125 C 0.140625 -8.476562 0.863281 -11.265625 2.3125 -14.140625 C 3.769531 -17.015625 5.753906 -19.398438 8.265625 -21.296875 C 10.785156 -23.191406 13.546875 -24.140625 16.546875 -24.140625 C 17.941406 -24.140625 19.078125 -23.828125 19.953125 -23.203125 C 20.835938 -22.585938 21.28125 -21.703125 21.28125 -20.546875 Z M 15.546875 -23.28125 C 14.671875 -23.28125 13.671875 -22.65625 12.546875 -21.40625 C 11.421875 -20.164062 10.390625 -18.550781 9.453125 -16.5625 C 8.515625 -14.582031 7.816406 -12.546875 7.359375 -10.453125 C 9.515625 -11.398438 11.1875 -12.414062 12.375 -13.5 C 13.582031 -14.59375 14.535156 -15.84375 15.234375 -17.25 C 15.929688 -18.664062 16.28125 -20.175781 16.28125 -21.78125 C 16.28125 -22.351562 16.21875 -22.742188 16.09375 -22.953125 C 15.976562 -23.171875 15.796875 -23.28125 15.546875 -23.28125 Z M 13.28125 -27.6875 C 14.519531 -29.476562 15.640625 -31.253906 16.640625 -33.015625 C 17.335938 -34.160156 17.875 -35.015625 18.25 -35.578125 C 18.632812 -36.140625 19.050781 -36.648438 19.5 -37.109375 C 19.832031 -37.460938 20.226562 -37.742188 20.6875 -37.953125 C 21.144531 -38.171875 21.582031 -38.28125 22 -38.28125 C 22.632812 -38.28125 23.179688 -38.054688 23.640625 -37.609375 C 24.066406 -37.179688 24.28125 -36.722656 24.28125 -36.234375 C 24.28125 -35.453125 23.835938 -34.617188 22.953125 -33.734375 C 22.234375 -33.003906 20.976562 -32.082031 19.1875 -30.96875 C 17.0625 -29.601562 15.242188 -28.359375 13.734375 -27.234375 Z M 13.28125 -27.6875 "/></g></g></g><g fill="#000000" fill-opacity="1"><g transform="translate(367.395918, 190.563775)"><g/></g></g><g fill="#000000" fill-opacity="1"><g transform="translate(378.987387, 190.563775)"><g><path d="M 24.375 -7.5 L 25.234375 -7.5 L 24 -4.046875 C 23.425781 -2.378906 22.601562 -1.179688 21.53125 -0.453125 C 20.457031 0.273438 19.253906 0.640625 17.921875 0.640625 C 17.097656 0.640625 16.394531 0.5 15.8125 0.21875 C 15.238281 -0.0507812 14.816406 -0.425781 14.546875 -0.90625 C 14.273438 -1.457031 14.140625 -2.082031 14.140625 -2.78125 C 14.140625 -3.46875 14.289062 -4.453125 14.59375 -5.734375 L 15.828125 -10.40625 C 14.640625 -7.5625 13.5 -5.332031 12.40625 -3.71875 C 11.320312 -2.113281 10.21875 -0.984375 9.09375 -0.328125 C 7.96875 0.316406 6.707031 0.640625 5.3125 0.640625 C 3.957031 0.640625 2.9375 0.320312 2.25 -0.3125 C 1.570312 -0.945312 1.234375 -1.875 1.234375 -3.09375 C 1.234375 -4.03125 1.425781 -5.078125 1.8125 -6.234375 L 6.234375 -19.640625 C 6.410156 -20.191406 6.5 -20.632812 6.5 -20.96875 C 6.5 -21.601562 6.210938 -21.921875 5.640625 -21.921875 C 5.148438 -21.921875 4.671875 -21.660156 4.203125 -21.140625 C 3.734375 -20.628906 3.257812 -19.691406 2.78125 -18.328125 L 1.953125 -16.140625 L 1.09375 -16.140625 L 2.234375 -19.453125 C 3.316406 -22.578125 5.347656 -24.140625 8.328125 -24.140625 C 11.078125 -24.140625 12.453125 -22.882812 12.453125 -20.375 C 12.453125 -19.425781 12.242188 -18.273438 11.828125 -16.921875 L 7.734375 -4.640625 C 7.460938 -3.816406 7.328125 -3.164062 7.328125 -2.6875 C 7.328125 -1.988281 7.613281 -1.640625 8.1875 -1.640625 C 9.09375 -1.640625 10.164062 -2.53125 11.40625 -4.3125 C 12.65625 -6.101562 13.90625 -8.476562 15.15625 -11.4375 C 16.414062 -14.394531 17.53125 -17.570312 18.5 -20.96875 L 19.1875 -23.5 C 21.882812 -23.5625 24.082031 -23.773438 25.78125 -24.140625 L 20.09375 -3.859375 C 19.914062 -3.222656 19.828125 -2.722656 19.828125 -2.359375 C 19.828125 -1.847656 20.082031 -1.59375 20.59375 -1.59375 C 21.175781 -1.59375 21.691406 -1.863281 22.140625 -2.40625 C 22.597656 -2.957031 23.050781 -3.882812 23.5 -5.1875 Z M 24.375 -7.5 "/></g></g></g><g fill="#000000" fill-opacity="1"><g transform="translate(406.125059, 190.563775)"><g><path d="M 36.875 -7.359375 L 35.734375 -4.046875 C 34.648438 -0.921875 32.601562 0.640625 29.59375 0.640625 C 27.84375 0.640625 26.632812 0.09375 25.96875 -1 C 25.632812 -1.507812 25.46875 -2.191406 25.46875 -3.046875 C 25.46875 -4.046875 25.691406 -5.226562 26.140625 -6.59375 L 30.234375 -18.875 C 30.472656 -19.65625 30.59375 -20.257812 30.59375 -20.6875 C 30.59375 -21.289062 30.382812 -21.59375 29.96875 -21.59375 C 28.71875 -21.59375 27.222656 -20.097656 25.484375 -17.109375 C 23.742188 -14.128906 21.992188 -9.789062 20.234375 -4.09375 L 20.234375 -4.234375 L 19.046875 0 L 12.546875 0 L 18.09375 -18.875 C 18.332031 -19.65625 18.453125 -20.273438 18.453125 -20.734375 C 18.453125 -21.304688 18.210938 -21.59375 17.734375 -21.59375 C 16.367188 -21.59375 14.828125 -20.015625 13.109375 -16.859375 C 11.398438 -13.710938 9.789062 -9.609375 8.28125 -4.546875 L 8.28125 -4.59375 L 7.09375 0 L 0.6875 0 L 6.234375 -19.640625 C 6.378906 -20.160156 6.453125 -20.601562 6.453125 -20.96875 C 6.453125 -21.601562 6.179688 -21.921875 5.640625 -21.921875 C 5.085938 -21.921875 4.59375 -21.640625 4.15625 -21.078125 C 3.71875 -20.515625 3.257812 -19.597656 2.78125 -18.328125 L 1.90625 -16 L 1.046875 -16 L 2.28125 -19.453125 C 2.882812 -21.128906 3.722656 -22.328125 4.796875 -23.046875 C 5.867188 -23.773438 7.070312 -24.140625 8.40625 -24.140625 C 9.707031 -24.140625 10.644531 -23.804688 11.21875 -23.140625 C 11.800781 -22.472656 12.09375 -21.59375 12.09375 -20.5 C 12.09375 -19.71875 11.957031 -18.8125 11.6875 -17.78125 L 10.6875 -13.875 C 12.164062 -17.570312 13.6875 -20.207031 15.25 -21.78125 C 16.8125 -23.351562 18.6875 -24.140625 20.875 -24.140625 C 23.269531 -24.140625 24.46875 -22.957031 24.46875 -20.59375 C 24.46875 -19.75 24.285156 -18.644531 23.921875 -17.28125 L 23.09375 -14.375 C 24.613281 -17.976562 26.15625 -20.503906 27.71875 -21.953125 C 29.28125 -23.410156 31.070312 -24.140625 33.09375 -24.140625 C 34.375 -24.140625 35.316406 -23.820312 35.921875 -23.1875 C 36.523438 -22.550781 36.828125 -21.6875 36.828125 -20.59375 C 36.828125 -19.59375 36.613281 -18.488281 36.1875 -17.28125 L 31.734375 -3.859375 C 31.554688 -3.285156 31.46875 -2.847656 31.46875 -2.546875 C 31.46875 -1.910156 31.753906 -1.59375 32.328125 -1.59375 C 33.359375 -1.59375 34.3125 -2.789062 35.1875 -5.1875 L 36.015625 -7.359375 Z M 36.875 -7.359375 "/></g></g></g><g fill="#000000" fill-opacity="1"><g transform="translate(445.036013, 190.563775)"><g/></g></g><g fill="#000000" fill-opacity="1"><g transform="translate(456.627482, 190.563775)"><g><path d="M 22.5 -7.359375 L 23.375 -7.359375 L 22.234375 -4.046875 C 21.628906 -2.347656 20.785156 -1.140625 19.703125 -0.421875 C 18.628906 0.285156 17.472656 0.640625 16.234375 0.640625 C 14.660156 0.640625 13.539062 0.171875 12.875 -0.765625 C 12.445312 -1.316406 12.234375 -2.078125 12.234375 -3.046875 C 12.234375 -3.835938 12.367188 -4.734375 12.640625 -5.734375 C 11.609375 -3.484375 10.460938 -1.859375 9.203125 -0.859375 C 7.953125 0.140625 6.566406 0.640625 5.046875 0.640625 C 3.378906 0.640625 2.113281 0.148438 1.25 -0.828125 C 0.382812 -1.816406 -0.046875 -3.191406 -0.046875 -4.953125 C -0.046875 -7.648438 0.671875 -10.503906 2.109375 -13.515625 C 3.554688 -16.535156 5.382812 -19.0625 7.59375 -21.09375 C 9.800781 -23.125 11.96875 -24.140625 14.09375 -24.140625 C 14.914062 -24.140625 15.578125 -23.894531 16.078125 -23.40625 C 16.578125 -22.925781 16.867188 -22.203125 16.953125 -21.234375 L 17.59375 -23.46875 C 20.019531 -23.488281 22.21875 -23.710938 24.1875 -24.140625 L 18.234375 -3.859375 C 18.078125 -3.347656 18 -2.925781 18 -2.59375 C 18 -1.925781 18.289062 -1.59375 18.875 -1.59375 C 19.9375 -1.59375 20.875 -2.789062 21.6875 -5.1875 Z M 16.453125 -19.453125 C 16.484375 -19.609375 16.5 -19.835938 16.5 -20.140625 C 16.5 -20.898438 16.367188 -21.476562 16.109375 -21.875 C 15.859375 -22.269531 15.472656 -22.46875 14.953125 -22.46875 C 13.921875 -22.46875 12.742188 -21.539062 11.421875 -19.6875 C 10.109375 -17.84375 8.988281 -15.523438 8.0625 -12.734375 C 7.144531 -9.941406 6.6875 -7.242188 6.6875 -4.640625 C 6.6875 -3.640625 6.785156 -2.914062 6.984375 -2.46875 C 7.179688 -2.03125 7.503906 -1.8125 7.953125 -1.8125 C 8.617188 -1.8125 9.351562 -2.273438 10.15625 -3.203125 C 10.96875 -4.128906 11.773438 -5.460938 12.578125 -7.203125 C 13.378906 -8.953125 14.082031 -11.019531 14.6875 -13.40625 L 14.453125 -12.328125 Z M 16.453125 -19.453125 "/></g></g></g><g fill="#000000" fill-opacity="1"><g transform="translate(481.992332, 190.563775)"><g><path d="M 7.453125 -3.859375 C 7.367188 -3.554688 7.328125 -3.253906 7.328125 -2.953125 C 7.328125 -2.503906 7.445312 -2.164062 7.6875 -1.9375 C 7.925781 -1.707031 8.257812 -1.59375 8.6875 -1.59375 C 9.351562 -1.59375 9.992188 -1.914062 10.609375 -2.5625 C 11.234375 -3.21875 11.789062 -4.195312 12.28125 -5.5 L 12.953125 -7.359375 L 13.828125 -7.359375 L 12.90625 -4.734375 C 11.726562 -1.148438 9.457031 0.640625 6.09375 0.640625 C 4.550781 0.640625 3.390625 0.238281 2.609375 -0.5625 C 1.835938 -1.363281 1.453125 -2.460938 1.453125 -3.859375 C 1.453125 -4.742188 1.585938 -5.65625 1.859375 -6.59375 L 6.453125 -22.59375 L 2.359375 -22.59375 L 2.59375 -23.5 L 6.734375 -23.5 L 8.6875 -30.28125 C 11.257812 -30.3125 13.457031 -30.523438 15.28125 -30.921875 L 13.140625 -23.5 L 18.28125 -23.5 L 18.140625 -22.59375 L 12.875 -22.59375 Z M 7.453125 -3.859375 "/></g></g></g><g fill="#000000" fill-opacity="1"><g transform="translate(498.03856, 190.563775)"><g><path d="M 0.546875 -6.859375 C 0.546875 -9.347656 1.113281 -11.941406 2.25 -14.640625 C 3.382812 -17.335938 5.066406 -19.59375 7.296875 -21.40625 C 9.523438 -23.226562 12.1875 -24.140625 15.28125 -24.140625 C 17.644531 -24.140625 19.460938 -23.492188 20.734375 -22.203125 C 22.003906 -20.921875 22.640625 -19.066406 22.640625 -16.640625 C 22.640625 -14.148438 22.070312 -11.554688 20.9375 -8.859375 C 19.800781 -6.160156 18.117188 -3.898438 15.890625 -2.078125 C 13.660156 -0.265625 11 0.640625 7.90625 0.640625 C 5.539062 0.640625 3.722656 -0.00390625 2.453125 -1.296875 C 1.179688 -2.585938 0.546875 -4.441406 0.546875 -6.859375 Z M 15.046875 -23.234375 C 13.929688 -23.234375 12.703125 -22.15625 11.359375 -20 C 10.023438 -17.851562 8.90625 -15.21875 8 -12.09375 C 7.09375 -8.96875 6.640625 -6.054688 6.640625 -3.359375 C 6.640625 -2.273438 6.757812 -1.488281 7 -1 C 7.238281 -0.507812 7.632812 -0.265625 8.1875 -0.265625 C 9.300781 -0.265625 10.519531 -1.3125 11.84375 -3.40625 C 13.164062 -5.5 14.28125 -8.097656 15.1875 -11.203125 C 16.09375 -14.316406 16.546875 -17.265625 16.546875 -20.046875 C 16.546875 -21.234375 16.425781 -22.0625 16.1875 -22.53125 C 15.945312 -23 15.566406 -23.234375 15.046875 -23.234375 Z M 15.046875 -23.234375 "/></g></g></g><g fill="#000000" fill-opacity="1"><g transform="translate(522.08519, 190.563775)"><g/></g></g><g fill="#000000" fill-opacity="1"><g transform="translate(533.676659, 190.563775)"><g><path d="M 23.46875 -7.359375 L 24.328125 -7.359375 L 23.234375 -4.046875 C 22.691406 -2.316406 21.878906 -1.101562 20.796875 -0.40625 C 19.722656 0.289062 18.535156 0.640625 17.234375 0.640625 C 15.347656 0.640625 14.148438 -0.0546875 13.640625 -1.453125 C 13.398438 -2.003906 13.28125 -2.640625 13.28125 -3.359375 C 13.28125 -4.242188 13.460938 -5.320312 13.828125 -6.59375 L 13.875 -6.78125 C 12.71875 -4.195312 11.492188 -2.3125 10.203125 -1.125 C 8.921875 0.0507812 7.382812 0.640625 5.59375 0.640625 C 3.988281 0.640625 2.6875 0.109375 1.6875 -0.953125 C 0.6875 -2.015625 0.1875 -3.609375 0.1875 -5.734375 C 0.1875 -8.179688 0.820312 -10.851562 2.09375 -13.75 C 3.363281 -16.644531 5.148438 -19.097656 7.453125 -21.109375 C 9.753906 -23.128906 12.378906 -24.140625 15.328125 -24.140625 C 16.742188 -24.140625 17.664062 -23.625 18.09375 -22.59375 L 20.140625 -30.328125 C 20.296875 -30.867188 20.375 -31.289062 20.375 -31.59375 C 20.375 -32.207031 20.132812 -32.648438 19.65625 -32.921875 C 19.1875 -33.191406 18.394531 -33.328125 17.28125 -33.328125 L 17.546875 -34.28125 C 19.640625 -34.3125 21.539062 -34.476562 23.25 -34.78125 C 24.96875 -35.082031 26.613281 -35.535156 28.1875 -36.140625 L 19.28125 -3.859375 C 19.125 -3.441406 19.046875 -3.035156 19.046875 -2.640625 C 19.046875 -1.941406 19.335938 -1.59375 19.921875 -1.59375 C 20.367188 -1.59375 20.820312 -1.859375 21.28125 -2.390625 C 21.738281 -2.921875 22.207031 -3.851562 22.6875 -5.1875 Z M 17.78125 -21.5 C 17.445312 -22.5625 16.835938 -23.09375 15.953125 -23.09375 C 14.648438 -23.09375 13.296875 -22.160156 11.890625 -20.296875 C 10.484375 -18.429688 9.300781 -16.070312 8.34375 -13.21875 C 7.382812 -10.375 6.90625 -7.5625 6.90625 -4.78125 C 6.90625 -3.71875 7.019531 -2.925781 7.25 -2.40625 C 7.476562 -1.894531 7.847656 -1.640625 8.359375 -1.640625 C 8.972656 -1.640625 9.6875 -2.082031 10.5 -2.96875 C 11.320312 -3.863281 12.175781 -5.160156 13.0625 -6.859375 C 13.957031 -8.554688 14.769531 -10.570312 15.5 -12.90625 Z M 17.78125 -21.5 "/></g></g></g><g fill="#000000" fill-opacity="1"><g transform="translate(559.996107, 190.563775)"><g><path d="M 21.28125 -20.546875 C 21.28125 -18.035156 19.867188 -15.835938 17.046875 -13.953125 C 14.234375 -12.078125 10.960938 -10.625 7.234375 -9.59375 C 7.046875 -8.5625 6.953125 -7.53125 6.953125 -6.5 C 6.953125 -4.894531 7.25 -3.757812 7.84375 -3.09375 C 8.4375 -2.425781 9.304688 -2.09375 10.453125 -2.09375 C 11.398438 -2.09375 12.460938 -2.382812 13.640625 -2.96875 C 14.816406 -3.5625 15.96875 -4.507812 17.09375 -5.8125 L 17.828125 -5.453125 C 16.734375 -3.753906 15.269531 -2.3125 13.4375 -1.125 C 11.601562 0.0507812 9.550781 0.640625 7.28125 0.640625 C 5.1875 0.640625 3.472656 0.078125 2.140625 -1.046875 C 0.804688 -2.171875 0.140625 -3.75 0.140625 -5.78125 C 0.140625 -8.476562 0.863281 -11.265625 2.3125 -14.140625 C 3.769531 -17.015625 5.753906 -19.398438 8.265625 -21.296875 C 10.785156 -23.191406 13.546875 -24.140625 16.546875 -24.140625 C 17.941406 -24.140625 19.078125 -23.828125 19.953125 -23.203125 C 20.835938 -22.585938 21.28125 -21.703125 21.28125 -20.546875 Z M 15.546875 -23.28125 C 14.671875 -23.28125 13.671875 -22.65625 12.546875 -21.40625 C 11.421875 -20.164062 10.390625 -18.550781 9.453125 -16.5625 C 8.515625 -14.582031 7.816406 -12.546875 7.359375 -10.453125 C 9.515625 -11.398438 11.1875 -12.414062 12.375 -13.5 C 13.582031 -14.59375 14.535156 -15.84375 15.234375 -17.25 C 15.929688 -18.664062 16.28125 -20.175781 16.28125 -21.78125 C 16.28125 -22.351562 16.21875 -22.742188 16.09375 -22.953125 C 15.976562 -23.171875 15.796875 -23.28125 15.546875 -23.28125 Z M 15.546875 -23.28125 "/></g></g></g><path fill="#2c502f" d="M 756.488281 177.101562 C 750.269531 145.101562 711.269531 144.566406 701.652344 174.484375 C 692.039062 144.566406 653.039062 145.101562 646.816406 177.101562 C 641.171875 206.136719 701.652344 251.945312 701.652344 251.945312 C 701.652344 251.945312 762.132812 206.136719 756.488281 177.101562 Z M 756.488281 177.101562 " fill-opacity="1" fill-rule="nonzero"/></svg>